<svg width="520" height="646" viewBox="0 0 520 646" fill="none" xmlns="http://www.w3.org/2000/svg">
<g filter="url(#filter0_d_0_1)">
<rect width="512" height="512" rx="256" fill="#0D253F"/>
</g>
<path d="M273.914 247.844H390.351C398.504 247.844 406.324 244.602 412.091 238.831C417.858 233.059 421.1 225.231 421.105 217.067C421.105 208.9 417.864 201.067 412.097 195.292C406.329 189.517 398.507 186.272 390.351 186.272H273.914C265.758 186.272 257.935 189.517 252.168 195.292C246.4 201.067 243.16 208.9 243.16 217.067C243.165 225.231 246.407 233.059 252.174 238.831C257.941 244.602 265.761 247.844 273.914 247.844ZM120.754 326.268H254.595C262.748 326.268 270.568 323.026 276.335 317.255C282.102 311.483 285.344 303.655 285.349 295.491C285.349 287.324 282.109 279.491 276.341 273.716C270.574 267.941 262.751 264.696 254.595 264.696H120.754C112.597 264.696 104.775 267.941 99.0076 273.716C93.2401 279.491 90 287.324 90 295.491C90.0046 303.655 93.2468 311.483 99.0138 317.255C104.781 323.026 112.6 326.268 120.754 326.268ZM108.118 246.729H121.694V197.06H139.272V185H90.5395V197.025H108.118V246.729ZM157.025 246.729H170.601V199.378H170.775L186.439 246.694H196.881L213.068 199.378H213.242V246.694H226.817V185H206.193L191.921 225.258H191.747L177.562 185H157.025V246.729ZM355.298 282.019C353.482 278.228 350.784 274.929 347.431 272.399C343.952 269.852 339.999 268.027 335.805 267.032C331.211 265.882 326.494 265.297 321.759 265.289H301.396V326.983H323.587C328.044 327.004 332.478 326.328 336.727 324.978C340.739 323.756 344.487 321.794 347.779 319.192C350.981 316.59 353.577 313.319 355.385 309.607C357.34 305.483 358.311 300.961 358.222 296.397C358.364 291.443 357.363 286.523 355.298 282.019ZM342.366 304.553C341.348 306.879 339.769 308.915 337.771 310.479C335.695 312.007 333.324 313.087 330.81 313.65C327.956 314.309 325.036 314.63 322.107 314.609H315.059V278.011H323.065C325.812 277.997 328.547 278.367 331.193 279.109C333.626 279.766 335.916 280.871 337.946 282.368C339.806 283.834 341.316 285.698 342.366 287.823C343.562 290.273 344.158 292.973 344.107 295.7C344.183 298.743 343.589 301.766 342.366 304.553ZM420.043 304.327C419.428 302.642 418.494 301.091 417.293 299.761C416.098 298.437 414.67 297.345 413.081 296.537C411.348 295.661 409.485 295.072 407.564 294.794V294.62C410.549 293.761 413.221 292.054 415.257 289.705C417.263 287.256 418.303 284.156 418.181 280.991C418.311 278.153 417.616 275.338 416.179 272.887C414.868 270.89 413.071 269.258 410.958 268.147C408.684 266.971 406.221 266.204 403.683 265.881C401.019 265.5 398.332 265.308 395.642 265.306H372.668V327H397.904C400.666 327.002 403.419 326.709 406.119 326.129C408.748 325.602 411.267 324.629 413.568 323.253C415.747 321.952 417.593 320.162 418.964 318.025C420.431 315.565 421.157 312.732 421.052 309.869C421.055 307.98 420.731 306.105 420.095 304.327H420.043ZM386.243 276.878H395.468C396.548 276.882 397.626 276.988 398.687 277.192C399.717 277.377 400.713 277.712 401.646 278.185C402.506 278.655 403.236 279.332 403.77 280.155C404.357 281.105 404.648 282.209 404.605 283.326C404.63 284.419 404.373 285.5 403.857 286.463C403.387 287.309 402.718 288.028 401.907 288.555C401.064 289.09 400.133 289.473 399.157 289.688C398.148 289.926 397.114 290.043 396.077 290.036H386.243V276.878ZM406.641 311.733C406.118 312.643 405.391 313.418 404.518 313.999C403.633 314.595 402.64 315.01 401.594 315.219C400.555 315.453 399.492 315.57 398.426 315.567H386.243V301.625H396.512C397.677 301.636 398.839 301.724 399.993 301.887C401.218 302.055 402.416 302.377 403.561 302.845C404.628 303.293 405.567 304 406.293 304.902C407.051 305.902 407.438 307.133 407.39 308.387C407.446 309.55 407.187 310.706 406.641 311.733Z" fill="url(#paint0_linear_0_1)"/>
<g filter="url(#filter1_d_0_1)">
<path d="M84.9886 570.372V563.273H118.438V570.372H105.969V604H97.4574V570.372H84.9886ZM123.946 563.273H134.565L145.781 590.636H146.259L157.474 563.273H168.094V604H159.741V577.491H159.403L148.864 603.801H143.176L132.636 577.392H132.298V604H123.946V563.273ZM189.626 604H175.188V563.273H189.745C193.842 563.273 197.368 564.088 200.325 565.719C203.281 567.336 205.555 569.663 207.146 572.699C208.75 575.735 209.552 579.367 209.552 583.597C209.552 587.839 208.75 591.485 207.146 594.534C205.555 597.583 203.268 599.923 200.285 601.554C197.315 603.185 193.762 604 189.626 604ZM183.799 596.622H189.268C191.813 596.622 193.954 596.171 195.691 595.27C197.441 594.355 198.754 592.943 199.629 591.034C200.517 589.112 200.961 586.633 200.961 583.597C200.961 580.587 200.517 578.128 199.629 576.219C198.754 574.31 197.448 572.904 195.711 572.003C193.974 571.101 191.833 570.651 189.288 570.651H183.799V596.622ZM215.93 604V563.273H232.237C235.233 563.273 237.732 563.717 239.734 564.605C241.736 565.493 243.241 566.726 244.249 568.304C245.256 569.868 245.76 571.671 245.76 573.713C245.76 575.304 245.442 576.703 244.805 577.909C244.169 579.102 243.294 580.083 242.18 580.852C241.08 581.608 239.821 582.145 238.402 582.463V582.861C239.953 582.927 241.405 583.365 242.757 584.173C244.123 584.982 245.23 586.116 246.078 587.574C246.927 589.019 247.351 590.742 247.351 592.744C247.351 594.905 246.814 596.834 245.74 598.531C244.679 600.215 243.108 601.547 241.027 602.528C238.946 603.509 236.38 604 233.331 604H215.93ZM224.541 596.96H231.561C233.961 596.96 235.711 596.503 236.811 595.588C237.911 594.66 238.462 593.427 238.462 591.889C238.462 590.762 238.19 589.768 237.646 588.906C237.103 588.045 236.327 587.368 235.32 586.878C234.325 586.387 233.139 586.142 231.76 586.142H224.541V596.96ZM224.541 580.315H230.925C232.105 580.315 233.152 580.11 234.067 579.699C234.995 579.275 235.724 578.678 236.254 577.909C236.798 577.14 237.07 576.219 237.07 575.145C237.07 573.673 236.546 572.487 235.499 571.585C234.464 570.684 232.993 570.233 231.084 570.233H224.541V580.315ZM265.915 563.273H276.534L287.75 590.636H288.227L299.443 563.273H310.062V604H301.71V577.491H301.372L290.832 603.801H285.145L274.605 577.392H274.267V604H265.915V563.273ZM330.799 604.597C327.71 604.597 325.039 603.94 322.785 602.628C320.544 601.302 318.814 599.459 317.594 597.099C316.375 594.726 315.765 591.975 315.765 588.847C315.765 585.691 316.375 582.934 317.594 580.574C318.814 578.201 320.544 576.358 322.785 575.045C325.039 573.72 327.71 573.057 330.799 573.057C333.888 573.057 336.553 573.72 338.793 575.045C341.047 576.358 342.784 578.201 344.004 580.574C345.223 582.934 345.833 585.691 345.833 588.847C345.833 591.975 345.223 594.726 344.004 597.099C342.784 599.459 341.047 601.302 338.793 602.628C336.553 603.94 333.888 604.597 330.799 604.597ZM330.839 598.034C332.244 598.034 333.417 597.636 334.359 596.841C335.3 596.032 336.009 594.932 336.487 593.54C336.977 592.148 337.222 590.563 337.222 588.787C337.222 587.01 336.977 585.426 336.487 584.034C336.009 582.642 335.3 581.542 334.359 580.733C333.417 579.924 332.244 579.52 330.839 579.52C329.42 579.52 328.227 579.924 327.259 580.733C326.305 581.542 325.582 582.642 325.092 584.034C324.614 585.426 324.376 587.01 324.376 588.787C324.376 590.563 324.614 592.148 325.092 593.54C325.582 594.932 326.305 596.032 327.259 596.841C328.227 597.636 329.42 598.034 330.839 598.034ZM378.835 573.455L368.156 604H358.61L347.931 573.455H356.88L363.224 595.31H363.542L369.866 573.455H378.835ZM383.17 604V573.455H391.641V604H383.17ZM387.425 569.517C386.166 569.517 385.085 569.099 384.184 568.264C383.296 567.416 382.852 566.402 382.852 565.222C382.852 564.055 383.296 563.054 384.184 562.219C385.085 561.37 386.166 560.946 387.425 560.946C388.685 560.946 389.759 561.37 390.647 562.219C391.549 563.054 391.999 564.055 391.999 565.222C391.999 566.402 391.549 567.416 390.647 568.264C389.759 569.099 388.685 569.517 387.425 569.517ZM412.348 604.597C409.206 604.597 406.501 603.96 404.234 602.688C401.981 601.402 400.244 599.585 399.024 597.239C397.804 594.879 397.195 592.088 397.195 588.866C397.195 585.724 397.804 582.967 399.024 580.594C400.244 578.221 401.961 576.371 404.175 575.045C406.402 573.72 409.014 573.057 412.01 573.057C414.025 573.057 415.901 573.382 417.638 574.031C419.388 574.668 420.912 575.629 422.212 576.915C423.524 578.201 424.545 579.818 425.274 581.767C426.003 583.703 426.368 585.97 426.368 588.568V590.895H400.575V585.645H418.393C418.393 584.425 418.128 583.345 417.598 582.403C417.068 581.462 416.332 580.726 415.391 580.196C414.463 579.652 413.382 579.381 412.149 579.381C410.863 579.381 409.723 579.679 408.729 580.276C407.748 580.859 406.979 581.648 406.422 582.642C405.865 583.623 405.58 584.717 405.567 585.923V590.915C405.567 592.426 405.845 593.732 406.402 594.832C406.972 595.933 407.774 596.781 408.808 597.378C409.842 597.974 411.069 598.273 412.487 598.273C413.429 598.273 414.29 598.14 415.072 597.875C415.855 597.61 416.524 597.212 417.081 596.682C417.638 596.152 418.062 595.502 418.354 594.733L426.189 595.25C425.791 597.133 424.976 598.777 423.743 600.182C422.523 601.574 420.946 602.661 419.01 603.443C417.088 604.212 414.867 604.597 412.348 604.597Z" fill="#0D253F"/>
</g>
<path d="M158.966 632.017V630.455H169.875V632.017H165.301V645H163.54V632.017H158.966ZM174.042 638.438V645H172.366V630.455H174.042V635.795H174.184C174.44 635.232 174.824 634.785 175.335 634.453C175.851 634.117 176.538 633.949 177.395 633.949C178.138 633.949 178.789 634.098 179.348 634.396C179.906 634.69 180.34 635.142 180.647 635.753C180.96 636.359 181.116 637.131 181.116 638.068V645H179.44V638.182C179.44 637.315 179.215 636.645 178.765 636.172C178.32 635.694 177.702 635.455 176.912 635.455C176.362 635.455 175.87 635.571 175.434 635.803C175.003 636.035 174.663 636.373 174.412 636.818C174.165 637.263 174.042 637.803 174.042 638.438ZM188.756 645.227C187.705 645.227 186.799 644.995 186.036 644.531C185.279 644.062 184.694 643.409 184.282 642.571C183.875 641.728 183.671 640.748 183.671 639.631C183.671 638.513 183.875 637.528 184.282 636.676C184.694 635.819 185.267 635.152 186.001 634.673C186.739 634.19 187.601 633.949 188.586 633.949C189.154 633.949 189.715 634.044 190.269 634.233C190.823 634.422 191.327 634.73 191.782 635.156C192.237 635.578 192.599 636.136 192.869 636.832C193.138 637.528 193.273 638.385 193.273 639.403V640.114H184.864V638.665H191.569C191.569 638.049 191.446 637.5 191.2 637.017C190.958 636.534 190.612 636.153 190.163 635.874C189.718 635.594 189.192 635.455 188.586 635.455C187.918 635.455 187.341 635.62 186.853 635.952C186.37 636.278 185.998 636.705 185.738 637.23C185.478 637.756 185.347 638.319 185.347 638.92V639.886C185.347 640.71 185.489 641.409 185.773 641.982C186.062 642.55 186.462 642.983 186.974 643.281C187.485 643.575 188.079 643.722 188.756 643.722C189.197 643.722 189.594 643.66 189.95 643.537C190.309 643.409 190.62 643.22 190.88 642.969C191.14 642.713 191.342 642.396 191.484 642.017L193.103 642.472C192.933 643.021 192.646 643.504 192.244 643.92C191.841 644.332 191.344 644.654 190.752 644.886C190.16 645.114 189.495 645.227 188.756 645.227ZM201.675 630.455H203.778L208.721 642.528H208.891L213.835 630.455H215.937V645H214.289V633.949H214.147L209.602 645H208.011L203.465 633.949H203.323V645H201.675V630.455ZM223.673 645.227C222.688 645.227 221.824 644.993 221.081 644.524C220.342 644.055 219.764 643.4 219.348 642.557C218.936 641.714 218.73 640.729 218.73 639.602C218.73 638.466 218.936 637.474 219.348 636.626C219.764 635.779 220.342 635.121 221.081 634.652C221.824 634.183 222.688 633.949 223.673 633.949C224.658 633.949 225.52 634.183 226.258 634.652C227.002 635.121 227.579 635.779 227.991 636.626C228.408 637.474 228.616 638.466 228.616 639.602C228.616 640.729 228.408 641.714 227.991 642.557C227.579 643.4 227.002 644.055 226.258 644.524C225.52 644.993 224.658 645.227 223.673 645.227ZM223.673 643.722C224.421 643.722 225.037 643.53 225.52 643.146C226.002 642.763 226.36 642.259 226.592 641.634C226.824 641.009 226.94 640.331 226.94 639.602C226.94 638.873 226.824 638.194 226.592 637.564C226.36 636.934 226.002 636.425 225.52 636.037C225.037 635.649 224.421 635.455 223.673 635.455C222.925 635.455 222.309 635.649 221.826 636.037C221.343 636.425 220.986 636.934 220.754 637.564C220.522 638.194 220.406 638.873 220.406 639.602C220.406 640.331 220.522 641.009 220.754 641.634C220.986 642.259 221.343 642.763 221.826 643.146C222.309 643.53 222.925 643.722 223.673 643.722ZM239.705 634.091L235.67 645H233.966L229.932 634.091H231.75L234.761 642.784H234.875L237.886 634.091H239.705ZM241.917 645V634.091H243.593V645H241.917ZM242.769 632.273C242.442 632.273 242.161 632.161 241.924 631.939C241.692 631.716 241.576 631.449 241.576 631.136C241.576 630.824 241.692 630.556 241.924 630.334C242.161 630.111 242.442 630 242.769 630C243.096 630 243.375 630.111 243.607 630.334C243.844 630.556 243.962 630.824 243.962 631.136C243.962 631.449 243.844 631.716 243.607 631.939C243.375 632.161 243.096 632.273 242.769 632.273ZM251.237 645.227C250.186 645.227 249.279 644.995 248.517 644.531C247.759 644.062 247.174 643.409 246.762 642.571C246.355 641.728 246.152 640.748 246.152 639.631C246.152 638.513 246.355 637.528 246.762 636.676C247.174 635.819 247.747 635.152 248.481 634.673C249.22 634.19 250.082 633.949 251.066 633.949C251.635 633.949 252.196 634.044 252.75 634.233C253.304 634.422 253.808 634.73 254.262 635.156C254.717 635.578 255.079 636.136 255.349 636.832C255.619 637.528 255.754 638.385 255.754 639.403V640.114H247.345V638.665H254.049C254.049 638.049 253.926 637.5 253.68 637.017C253.439 636.534 253.093 636.153 252.643 635.874C252.198 635.594 251.672 635.455 251.066 635.455C250.399 635.455 249.821 635.62 249.333 635.952C248.85 636.278 248.479 636.705 248.218 637.23C247.958 637.756 247.828 638.319 247.828 638.92V639.886C247.828 640.71 247.97 641.409 248.254 641.982C248.543 642.55 248.943 642.983 249.454 643.281C249.966 643.575 250.56 643.722 251.237 643.722C251.677 643.722 252.075 643.66 252.43 643.537C252.79 643.409 253.1 643.22 253.36 642.969C253.621 642.713 253.822 642.396 253.964 642.017L255.583 642.472C255.413 643.021 255.127 643.504 254.724 643.92C254.322 644.332 253.824 644.654 253.233 644.886C252.641 645.114 251.975 645.227 251.237 645.227ZM268.645 645H264.156V630.455H268.843C270.254 630.455 271.462 630.746 272.466 631.328C273.469 631.906 274.239 632.737 274.774 633.821C275.309 634.901 275.576 636.193 275.576 637.699C275.576 639.214 275.306 640.518 274.767 641.612C274.227 642.701 273.441 643.539 272.409 644.126C271.377 644.709 270.122 645 268.645 645ZM265.917 643.438H268.531C269.734 643.438 270.73 643.205 271.521 642.741C272.312 642.277 272.901 641.617 273.289 640.76C273.678 639.903 273.872 638.883 273.872 637.699C273.872 636.525 273.68 635.514 273.297 634.666C272.913 633.814 272.34 633.161 271.578 632.706C270.815 632.247 269.866 632.017 268.73 632.017H265.917V643.438ZM281.514 645.256C280.823 645.256 280.195 645.125 279.632 644.865C279.068 644.6 278.621 644.219 278.289 643.722C277.958 643.22 277.792 642.614 277.792 641.903C277.792 641.278 277.915 640.772 278.162 640.384C278.408 639.991 278.737 639.683 279.149 639.46C279.561 639.238 280.015 639.072 280.512 638.963C281.014 638.849 281.519 638.759 282.025 638.693C282.688 638.608 283.225 638.544 283.637 638.501C284.054 638.454 284.357 638.376 284.547 638.267C284.741 638.158 284.838 637.969 284.838 637.699V637.642C284.838 636.941 284.646 636.397 284.262 636.009C283.884 635.62 283.308 635.426 282.537 635.426C281.736 635.426 281.109 635.601 280.654 635.952C280.2 636.302 279.88 636.676 279.696 637.074L278.105 636.506C278.389 635.843 278.768 635.327 279.241 634.957C279.719 634.583 280.24 634.323 280.804 634.176C281.372 634.025 281.931 633.949 282.48 633.949C282.83 633.949 283.233 633.991 283.687 634.077C284.146 634.157 284.589 634.325 285.015 634.581C285.446 634.837 285.804 635.223 286.088 635.739C286.372 636.255 286.514 636.946 286.514 637.812V645H284.838V643.523H284.752C284.639 643.759 284.449 644.013 284.184 644.283C283.919 644.553 283.566 644.782 283.126 644.972C282.686 645.161 282.148 645.256 281.514 645.256ZM281.77 643.75C282.432 643.75 282.991 643.62 283.446 643.359C283.905 643.099 284.251 642.763 284.483 642.351C284.719 641.939 284.838 641.506 284.838 641.051V639.517C284.767 639.602 284.61 639.68 284.369 639.751C284.132 639.818 283.858 639.877 283.545 639.929C283.237 639.976 282.937 640.019 282.643 640.057C282.354 640.09 282.12 640.118 281.94 640.142C281.504 640.199 281.097 640.291 280.718 640.419C280.344 640.542 280.041 640.729 279.809 640.98C279.582 641.226 279.468 641.562 279.468 641.989C279.468 642.571 279.684 643.011 280.115 643.31C280.55 643.603 281.102 643.75 281.77 643.75ZM294.317 634.091V635.511H288.664V634.091H294.317ZM290.312 631.477H291.988V641.875C291.988 642.348 292.057 642.704 292.194 642.94C292.336 643.172 292.516 643.329 292.734 643.409C292.956 643.485 293.191 643.523 293.437 643.523C293.621 643.523 293.773 643.513 293.891 643.494C294.01 643.471 294.104 643.452 294.175 643.438L294.516 644.943C294.403 644.986 294.244 645.028 294.04 645.071C293.837 645.118 293.579 645.142 293.266 645.142C292.793 645.142 292.329 645.04 291.874 644.837C291.424 644.633 291.05 644.323 290.752 643.906C290.459 643.49 290.312 642.964 290.312 642.33V631.477ZM300.049 645.256C299.358 645.256 298.73 645.125 298.167 644.865C297.603 644.6 297.156 644.219 296.825 643.722C296.493 643.22 296.327 642.614 296.327 641.903C296.327 641.278 296.451 640.772 296.697 640.384C296.943 639.991 297.272 639.683 297.684 639.46C298.096 639.238 298.55 639.072 299.048 638.963C299.549 638.849 300.054 638.759 300.56 638.693C301.223 638.608 301.761 638.544 302.173 638.501C302.589 638.454 302.892 638.376 303.082 638.267C303.276 638.158 303.373 637.969 303.373 637.699V637.642C303.373 636.941 303.181 636.397 302.798 636.009C302.419 635.62 301.844 635.426 301.072 635.426C300.272 635.426 299.644 635.601 299.19 635.952C298.735 636.302 298.415 636.676 298.231 637.074L296.64 636.506C296.924 635.843 297.303 635.327 297.776 634.957C298.254 634.583 298.775 634.323 299.339 634.176C299.907 634.025 300.466 633.949 301.015 633.949C301.365 633.949 301.768 633.991 302.222 634.077C302.682 634.157 303.124 634.325 303.55 634.581C303.981 634.837 304.339 635.223 304.623 635.739C304.907 636.255 305.049 636.946 305.049 637.812V645H303.373V643.523H303.288C303.174 643.759 302.985 644.013 302.719 644.283C302.454 644.553 302.102 644.782 301.661 644.972C301.221 645.161 300.683 645.256 300.049 645.256ZM300.305 643.75C300.968 643.75 301.526 643.62 301.981 643.359C302.44 643.099 302.786 642.763 303.018 642.351C303.254 641.939 303.373 641.506 303.373 641.051V639.517C303.302 639.602 303.146 639.68 302.904 639.751C302.667 639.818 302.393 639.877 302.08 639.929C301.772 639.976 301.472 640.019 301.178 640.057C300.889 640.09 300.655 640.118 300.475 640.142C300.04 640.199 299.632 640.291 299.254 640.419C298.879 640.542 298.576 640.729 298.344 640.98C298.117 641.226 298.004 641.562 298.004 641.989C298.004 642.571 298.219 643.011 298.65 643.31C299.085 643.603 299.637 643.75 300.305 643.75ZM308.336 645V630.455H310.012V635.824H310.154C310.277 635.634 310.447 635.393 310.665 635.099C310.888 634.801 311.205 634.536 311.617 634.304C312.033 634.067 312.597 633.949 313.307 633.949C314.226 633.949 315.035 634.179 315.736 634.638C316.437 635.097 316.984 635.748 317.377 636.591C317.77 637.434 317.966 638.428 317.966 639.574C317.966 640.729 317.77 641.731 317.377 642.578C316.984 643.421 316.439 644.074 315.743 644.538C315.047 644.998 314.245 645.227 313.336 645.227C312.635 645.227 312.074 645.111 311.652 644.879C311.231 644.643 310.907 644.375 310.679 644.077C310.452 643.774 310.277 643.523 310.154 643.324H309.955V645H308.336ZM309.983 639.545C309.983 640.369 310.104 641.096 310.346 641.726C310.587 642.351 310.94 642.841 311.404 643.196C311.868 643.546 312.436 643.722 313.108 643.722C313.809 643.722 314.394 643.537 314.863 643.168C315.336 642.794 315.691 642.292 315.928 641.662C316.169 641.027 316.29 640.322 316.29 639.545C316.29 638.778 316.172 638.087 315.935 637.472C315.703 636.851 315.35 636.361 314.877 636.001C314.408 635.637 313.819 635.455 313.108 635.455C312.426 635.455 311.854 635.627 311.39 635.973C310.926 636.314 310.575 636.792 310.338 637.408C310.102 638.018 309.983 638.731 309.983 639.545ZM323.74 645.256C323.049 645.256 322.422 645.125 321.858 644.865C321.295 644.6 320.847 644.219 320.516 643.722C320.185 643.22 320.019 642.614 320.019 641.903C320.019 641.278 320.142 640.772 320.388 640.384C320.634 639.991 320.963 639.683 321.375 639.46C321.787 639.238 322.242 639.072 322.739 638.963C323.241 638.849 323.745 638.759 324.252 638.693C324.915 638.608 325.452 638.544 325.864 638.501C326.281 638.454 326.584 638.376 326.773 638.267C326.967 638.158 327.064 637.969 327.064 637.699V637.642C327.064 636.941 326.873 636.397 326.489 636.009C326.11 635.62 325.535 635.426 324.763 635.426C323.963 635.426 323.336 635.601 322.881 635.952C322.426 636.302 322.107 636.676 321.922 637.074L320.331 636.506C320.615 635.843 320.994 635.327 321.468 634.957C321.946 634.583 322.467 634.323 323.03 634.176C323.598 634.025 324.157 633.949 324.706 633.949C325.057 633.949 325.459 633.991 325.914 634.077C326.373 634.157 326.816 634.325 327.242 634.581C327.673 634.837 328.03 635.223 328.314 635.739C328.598 636.255 328.74 636.946 328.74 637.812V645H327.064V643.523H326.979C326.865 643.759 326.676 644.013 326.411 644.283C326.146 644.553 325.793 644.782 325.353 644.972C324.912 645.161 324.375 645.256 323.74 645.256ZM323.996 643.75C324.659 643.75 325.218 643.62 325.672 643.359C326.132 643.099 326.477 642.763 326.709 642.351C326.946 641.939 327.064 641.506 327.064 641.051V639.517C326.993 639.602 326.837 639.68 326.596 639.751C326.359 639.818 326.084 639.877 325.772 639.929C325.464 639.976 325.163 640.019 324.87 640.057C324.581 640.09 324.346 640.118 324.167 640.142C323.731 640.199 323.324 640.291 322.945 640.419C322.571 640.542 322.268 640.729 322.036 640.98C321.809 641.226 321.695 641.562 321.695 641.989C321.695 642.571 321.91 643.011 322.341 643.31C322.777 643.603 323.328 643.75 323.996 643.75ZM339.527 636.534L338.021 636.96C337.927 636.709 337.787 636.465 337.602 636.229C337.422 635.987 337.176 635.788 336.864 635.632C336.551 635.476 336.151 635.398 335.663 635.398C334.996 635.398 334.439 635.552 333.994 635.859C333.554 636.162 333.334 636.548 333.334 637.017C333.334 637.434 333.485 637.763 333.788 638.004C334.091 638.246 334.565 638.447 335.209 638.608L336.828 639.006C337.804 639.242 338.53 639.605 339.009 640.092C339.487 640.575 339.726 641.198 339.726 641.96C339.726 642.585 339.546 643.144 339.186 643.636C338.831 644.129 338.334 644.517 337.695 644.801C337.055 645.085 336.312 645.227 335.464 645.227C334.352 645.227 333.431 644.986 332.702 644.503C331.973 644.02 331.511 643.314 331.317 642.386L332.908 641.989C333.059 642.576 333.346 643.016 333.767 643.31C334.193 643.603 334.75 643.75 335.436 643.75C336.217 643.75 336.838 643.584 337.297 643.253C337.761 642.917 337.993 642.514 337.993 642.045C337.993 641.667 337.86 641.349 337.595 641.094C337.33 640.833 336.923 640.639 336.374 640.511L334.555 640.085C333.556 639.848 332.822 639.482 332.354 638.984C331.89 638.482 331.658 637.855 331.658 637.102C331.658 636.487 331.83 635.942 332.176 635.469C332.527 634.995 333.002 634.624 333.604 634.354C334.21 634.084 334.896 633.949 335.663 633.949C336.743 633.949 337.59 634.186 338.206 634.659C338.826 635.133 339.267 635.758 339.527 636.534ZM346.823 645.227C345.772 645.227 344.865 644.995 344.103 644.531C343.345 644.062 342.76 643.409 342.348 642.571C341.941 641.728 341.738 640.748 341.738 639.631C341.738 638.513 341.941 637.528 342.348 636.676C342.76 635.819 343.333 635.152 344.067 634.673C344.806 634.19 345.667 633.949 346.652 633.949C347.221 633.949 347.782 634.044 348.336 634.233C348.89 634.422 349.394 634.73 349.848 635.156C350.303 635.578 350.665 636.136 350.935 636.832C351.205 637.528 351.34 638.385 351.34 639.403V640.114H342.931V638.665H349.635C349.635 638.049 349.512 637.5 349.266 637.017C349.025 636.534 348.679 636.153 348.229 635.874C347.784 635.594 347.258 635.455 346.652 635.455C345.985 635.455 345.407 635.62 344.919 635.952C344.436 636.278 344.065 636.705 343.804 637.23C343.544 637.756 343.414 638.319 343.414 638.92V639.886C343.414 640.71 343.556 641.409 343.84 641.982C344.129 642.55 344.529 642.983 345.04 643.281C345.551 643.575 346.146 643.722 346.823 643.722C347.263 643.722 347.661 643.66 348.016 643.537C348.376 643.409 348.686 643.22 348.946 642.969C349.207 642.713 349.408 642.396 349.55 642.017L351.169 642.472C350.999 643.021 350.712 643.504 350.31 643.92C349.908 644.332 349.41 644.654 348.819 644.886C348.227 645.114 347.561 645.227 346.823 645.227Z" fill="white" fill-opacity="0.44"/>
<defs>
<filter id="filter0_d_0_1" x="0" y="0" width="520" height="532" filterUnits="userSpaceOnUse" color-interpolation-filters="sRGB">
<feFlood flood-opacity="0" result="BackgroundImageFix"/>
<feColorMatrix in="SourceAlpha" type="matrix" values="0 0 0 0 0 0 0 0 0 0 0 0 0 0 0 0 0 0 127 0" result="hardAlpha"/>
<feOffset dx="4" dy="16"/>
<feGaussianBlur stdDeviation="2"/>
<feComposite in2="hardAlpha" operator="out"/>
<feColorMatrix type="matrix" values="0 0 0 0 0 0 0 0 0 0 0 0 0 0 0 0 0 0 0.25 0"/>
<feBlend mode="normal" in2="BackgroundImageFix" result="effect1_dropShadow_0_1"/>
<feBlend mode="normal" in="SourceGraphic" in2="effect1_dropShadow_0_1" result="shape"/>
</filter>
<filter id="filter1_d_0_1" x="80.9886" y="560.946" width="349.379" height="53.6506" filterUnits="userSpaceOnUse" color-interpolation-filters="sRGB">
<feFlood flood-opacity="0" result="BackgroundImageFix"/>
<feColorMatrix in="SourceAlpha" type="matrix" values="0 0 0 0 0 0 0 0 0 0 0 0 0 0 0 0 0 0 127 0" result="hardAlpha"/>
<feOffset dy="6"/>
<feGaussianBlur stdDeviation="2"/>
<feComposite in2="hardAlpha" operator="out"/>
<feColorMatrix type="matrix" values="0 0 0 0 0 0 0 0 0 0 0 0 0 0 0 0 0 0 0.25 0"/>
<feBlend mode="normal" in2="BackgroundImageFix" result="effect1_dropShadow_0_1"/>
<feBlend mode="normal" in="SourceGraphic" in2="effect1_dropShadow_0_1" result="shape"/>
</filter>
<linearGradient id="paint0_linear_0_1" x1="90" y1="256.035" x2="421.105" y2="256.035" gradientUnits="userSpaceOnUse">
<stop stop-color="#90CEA1"/>
<stop offset="0.56" stop-color="#3CBEC9"/>
<stop offset="1" stop-color="#00B3E5"/>
</linearGradient>
</defs>
</svg>
