<svg width="520" height="646" viewBox="0 0 520 646" fill="none" xmlns="http://www.w3.org/2000/svg">
<g filter="url(#filter0_d_0_1)">
<rect width="512" height="512" rx="256" fill="#0D253F"/>
</g>
<path d="M273.914 247.844H390.351C398.504 247.844 406.324 244.602 412.091 238.831C417.858 233.059 421.1 225.231 421.105 217.067C421.105 208.9 417.864 201.067 412.097 195.292C406.329 189.517 398.507 186.272 390.351 186.272H273.914C265.758 186.272 257.935 189.517 252.168 195.292C246.4 201.067 243.16 208.9 243.16 217.067C243.165 225.231 246.407 233.059 252.174 238.831C257.941 244.602 265.761 247.844 273.914 247.844ZM120.754 326.268H254.595C262.748 326.268 270.568 323.026 276.335 317.255C282.102 311.483 285.344 303.655 285.349 295.491C285.349 287.324 282.109 279.491 276.341 273.716C270.574 267.941 262.751 264.696 254.595 264.696H120.754C112.597 264.696 104.775 267.941 99.0076 273.716C93.2401 279.491 90 287.324 90 295.491C90.0046 303.655 93.2468 311.483 99.0138 317.255C104.781 323.026 112.6 326.268 120.754 326.268ZM108.118 246.729H121.694V197.06H139.272V185H90.5395V197.025H108.118V246.729ZM157.025 246.729H170.601V199.378H170.775L186.439 246.694H196.881L213.068 199.378H213.242V246.694H226.817V185H206.193L191.921 225.258H191.747L177.562 185H157.025V246.729ZM355.298 282.019C353.482 278.228 350.784 274.929 347.431 272.399C343.952 269.852 339.999 268.027 335.805 267.032C331.211 265.882 326.494 265.297 321.759 265.289H301.396V326.983H323.587C328.044 327.004 332.478 326.328 336.727 324.978C340.739 323.756 344.487 321.794 347.779 319.192C350.981 316.59 353.577 313.319 355.385 309.607C357.34 305.483 358.311 300.961 358.222 296.397C358.364 291.443 357.363 286.523 355.298 282.019ZM342.366 304.553C341.348 306.879 339.769 308.915 337.771 310.479C335.695 312.007 333.324 313.087 330.81 313.65C327.956 314.309 325.036 314.63 322.107 314.609H315.059V278.011H323.065C325.812 277.997 328.547 278.367 331.193 279.109C333.626 279.766 335.916 280.871 337.946 282.368C339.806 283.834 341.316 285.698 342.366 287.823C343.562 290.273 344.158 292.973 344.107 295.7C344.183 298.743 343.589 301.766 342.366 304.553ZM420.043 304.327C419.428 302.642 418.494 301.091 417.293 299.761C416.098 298.437 414.67 297.345 413.081 296.537C411.348 295.661 409.485 295.072 407.564 294.794V294.62C410.549 293.761 413.221 292.054 415.257 289.705C417.263 287.256 418.303 284.156 418.181 280.991C418.311 278.153 417.616 275.338 416.179 272.887C414.868 270.89 413.071 269.258 410.958 268.147C408.684 266.971 406.221 266.204 403.683 265.881C401.019 265.5 398.332 265.308 395.642 265.306H372.668V327H397.904C400.666 327.002 403.419 326.709 406.119 326.129C408.748 325.602 411.267 324.629 413.568 323.253C415.747 321.952 417.593 320.162 418.964 318.025C420.431 315.565 421.157 312.732 421.052 309.869C421.055 307.98 420.731 306.105 420.095 304.327H420.043ZM386.243 276.878H395.468C396.548 276.882 397.626 276.988 398.687 277.192C399.717 277.377 400.713 277.712 401.646 278.185C402.506 278.655 403.236 279.332 403.77 280.155C404.357 281.105 404.648 282.209 404.605 283.326C404.63 284.419 404.373 285.5 403.857 286.463C403.387 287.309 402.718 288.028 401.907 288.555C401.064 289.09 400.133 289.473 399.157 289.688C398.148 289.926 397.114 290.043 396.077 290.036H386.243V276.878ZM406.641 311.733C406.118 312.643 405.391 313.418 404.518 313.999C403.633 314.595 402.64 315.01 401.594 315.219C400.555 315.453 399.492 315.57 398.426 315.567H386.243V301.625H396.512C397.677 301.636 398.839 301.724 399.993 301.887C401.218 302.055 402.416 302.377 403.561 302.845C404.628 303.293 405.567 304 406.293 304.902C407.051 305.902 407.438 307.133 407.39 308.387C407.446 309.55 407.187 310.706 406.641 311.733Z" fill="url(#paint0_linear_0_1)"/>
<g filter="url(#filter1_d_0_1)">
<path d="M84.9886 570.372V563.273H118.438V570.372H105.969V604H97.4574V570.372H84.9886ZM123.946 563.273H134.565L145.781 590.636H146.259L157.474 563.273H168.094V604H159.741V577.491H159.403L148.864 603.801H143.176L132.636 577.392H132.298V604H123.946V563.273ZM189.626 604H175.188V563.273H189.745C193.842 563.273 197.368 564.088 200.325 565.719C203.281 567.336 205.555 569.663 207.146 572.699C208.75 575.735 209.552 579.367 209.552 583.597C209.552 587.839 208.75 591.485 207.146 594.534C205.555 597.583 203.268 599.923 200.285 601.554C197.315 603.185 193.762 604 189.626 604ZM183.799 596.622H189.268C191.813 596.622 193.954 596.171 195.691 595.27C197.441 594.355 198.754 592.943 199.629 591.034C200.517 589.112 200.961 586.633 200.961 583.597C200.961 580.587 200.517 578.128 199.629 576.219C198.754 574.31 197.448 572.904 195.711 572.003C193.974 571.101 191.833 570.651 189.288 570.651H183.799V596.622ZM215.93 604V563.273H232.237C235.233 563.273 237.732 563.717 239.734 564.605C241.736 565.493 243.241 566.726 244.249 568.304C245.256 569.868 245.76 571.671 245.76 573.713C245.76 575.304 245.442 576.703 244.805 577.909C244.169 579.102 243.294 580.083 242.18 580.852C241.08 581.608 239.821 582.145 238.402 582.463V582.861C239.953 582.927 241.405 583.365 242.757 584.173C244.123 584.982 245.23 586.116 246.078 587.574C246.927 589.019 247.351 590.742 247.351 592.744C247.351 594.905 246.814 596.834 245.74 598.531C244.679 600.215 243.108 601.547 241.027 602.528C238.946 603.509 236.38 604 233.331 604H215.93ZM224.541 596.96H231.561C233.961 596.96 235.711 596.503 236.811 595.588C237.911 594.66 238.462 593.427 238.462 591.889C238.462 590.762 238.19 589.768 237.646 588.906C237.103 588.045 236.327 587.368 235.32 586.878C234.325 586.387 233.139 586.142 231.76 586.142H224.541V596.96ZM224.541 580.315H230.925C232.105 580.315 233.152 580.11 234.067 579.699C234.995 579.275 235.724 578.678 236.254 577.909C236.798 577.14 237.07 576.219 237.07 575.145C237.07 573.673 236.546 572.487 235.499 571.585C234.464 570.684 232.993 570.233 231.084 570.233H224.541V580.315ZM265.915 563.273H276.534L287.75 590.636H288.227L299.443 563.273H310.062V604H301.71V577.491H301.372L290.832 603.801H285.145L274.605 577.392H274.267V604H265.915V563.273ZM330.799 604.597C327.71 604.597 325.039 603.94 322.785 602.628C320.544 601.302 318.814 599.459 317.594 597.099C316.375 594.726 315.765 591.975 315.765 588.847C315.765 585.691 316.375 582.934 317.594 580.574C318.814 578.201 320.544 576.358 322.785 575.045C325.039 573.72 327.71 573.057 330.799 573.057C333.888 573.057 336.553 573.72 338.793 575.045C341.047 576.358 342.784 578.201 344.004 580.574C345.223 582.934 345.833 585.691 345.833 588.847C345.833 591.975 345.223 594.726 344.004 597.099C342.784 599.459 341.047 601.302 338.793 602.628C336.553 603.94 333.888 604.597 330.799 604.597ZM330.839 598.034C332.244 598.034 333.417 597.636 334.359 596.841C335.3 596.032 336.009 594.932 336.487 593.54C336.977 592.148 337.222 590.563 337.222 588.787C337.222 587.01 336.977 585.426 336.487 584.034C336.009 582.642 335.3 581.542 334.359 580.733C333.417 579.924 332.244 579.52 330.839 579.52C329.42 579.52 328.227 579.924 327.259 580.733C326.305 581.542 325.582 582.642 325.092 584.034C324.614 585.426 324.376 587.01 324.376 588.787C324.376 590.563 324.614 592.148 325.092 593.54C325.582 594.932 326.305 596.032 327.259 596.841C328.227 597.636 329.42 598.034 330.839 598.034ZM378.835 573.455L368.156 604H358.61L347.931 573.455H356.88L363.224 595.31H363.542L369.866 573.455H378.835ZM383.17 604V573.455H391.641V604H383.17ZM387.425 569.517C386.166 569.517 385.085 569.099 384.184 568.264C383.296 567.416 382.852 566.402 382.852 565.222C382.852 564.055 383.296 563.054 384.184 562.219C385.085 561.37 386.166 560.946 387.425 560.946C388.685 560.946 389.759 561.37 390.647 562.219C391.549 563.054 391.999 564.055 391.999 565.222C391.999 566.402 391.549 567.416 390.647 568.264C389.759 569.099 388.685 569.517 387.425 569.517ZM412.348 604.597C409.206 604.597 406.501 603.96 404.234 602.688C401.981 601.402 400.244 599.585 399.024 597.239C397.804 594.879 397.195 592.088 397.195 588.866C397.195 585.724 397.804 582.967 399.024 580.594C400.244 578.221 401.961 576.371 404.175 575.045C406.402 573.72 409.014 573.057 412.01 573.057C414.025 573.057 415.901 573.382 417.638 574.031C419.388 574.668 420.912 575.629 422.212 576.915C423.524 578.201 424.545 579.818 425.274 581.767C426.003 583.703 426.368 585.97 426.368 588.568V590.895H400.575V585.645H418.393C418.393 584.425 418.128 583.345 417.598 582.403C417.068 581.462 416.332 580.726 415.391 580.196C414.463 579.652 413.382 579.381 412.149 579.381C410.863 579.381 409.723 579.679 408.729 580.276C407.748 580.859 406.979 581.648 406.422 582.642C405.865 583.623 405.58 584.717 405.567 585.923V590.915C405.567 592.426 405.845 593.732 406.402 594.832C406.972 595.933 407.774 596.781 408.808 597.378C409.842 597.974 411.069 598.273 412.487 598.273C413.429 598.273 414.29 598.14 415.072 597.875C415.855 597.61 416.524 597.212 417.081 596.682C417.638 596.152 418.062 595.502 418.354 594.733L426.189 595.25C425.791 597.133 424.976 598.777 423.743 600.182C422.523 601.574 420.946 602.661 419.01 603.443C417.088 604.212 414.867 604.597 412.348 604.597Z" fill="#0D253F"/>
</g>
<path d="M158.795 632.663V630.455H170.401V632.663H165.905V645H163.291V632.663H158.795ZM175.095 638.608V645H172.524V630.455H175.038V635.945H175.166C175.422 635.329 175.817 634.844 176.352 634.489C176.892 634.129 177.579 633.949 178.412 633.949C179.17 633.949 179.83 634.107 180.393 634.425C180.957 634.742 181.393 635.206 181.7 635.817C182.013 636.428 182.169 637.173 182.169 638.054V645H179.598V638.452C179.598 637.718 179.409 637.147 179.03 636.74C178.656 636.328 178.13 636.122 177.453 636.122C176.999 636.122 176.591 636.222 176.232 636.42C175.876 636.615 175.597 636.896 175.393 637.266C175.195 637.635 175.095 638.082 175.095 638.608ZM189.619 645.213C188.526 645.213 187.581 644.986 186.786 644.531C185.995 644.072 185.386 643.423 184.96 642.585C184.534 641.742 184.321 640.75 184.321 639.609C184.321 638.487 184.534 637.502 184.96 636.655C185.391 635.803 185.992 635.14 186.764 634.666C187.536 634.188 188.443 633.949 189.484 633.949C190.157 633.949 190.791 634.058 191.388 634.276C191.989 634.489 192.519 634.82 192.979 635.27C193.443 635.72 193.807 636.293 194.072 636.989C194.338 637.68 194.47 638.504 194.47 639.46V640.249H185.528V638.516H192.006C192.001 638.023 191.894 637.585 191.686 637.202C191.478 636.813 191.187 636.508 190.812 636.286C190.443 636.063 190.012 635.952 189.52 635.952C188.994 635.952 188.533 636.08 188.135 636.335C187.737 636.586 187.427 636.918 187.205 637.33C186.987 637.737 186.875 638.184 186.871 638.672V640.185C186.871 640.819 186.987 641.364 187.219 641.818C187.451 642.268 187.775 642.614 188.192 642.855C188.608 643.092 189.096 643.21 189.655 643.21C190.029 643.21 190.367 643.158 190.67 643.054C190.973 642.945 191.236 642.786 191.459 642.578C191.681 642.37 191.849 642.112 191.963 641.804L194.364 642.074C194.212 642.708 193.923 643.262 193.497 643.736C193.076 644.205 192.536 644.569 191.878 644.83C191.22 645.085 190.467 645.213 189.619 645.213ZM201.72 630.455H204.944L209.262 640.994H209.433L213.751 630.455H216.975V645H214.447V635.007H214.312L210.292 644.957H208.403L204.383 634.986H204.248V645H201.72V630.455ZM224.49 645.213C223.424 645.213 222.501 644.979 221.72 644.51C220.939 644.041 220.333 643.385 219.902 642.543C219.475 641.7 219.262 640.715 219.262 639.588C219.262 638.461 219.475 637.474 219.902 636.626C220.333 635.779 220.939 635.121 221.72 634.652C222.501 634.183 223.424 633.949 224.49 633.949C225.555 633.949 226.478 634.183 227.26 634.652C228.041 635.121 228.645 635.779 229.071 636.626C229.502 637.474 229.717 638.461 229.717 639.588C229.717 640.715 229.502 641.7 229.071 642.543C228.645 643.385 228.041 644.041 227.26 644.51C226.478 644.979 225.555 645.213 224.49 645.213ZM224.504 643.153C225.082 643.153 225.565 642.995 225.953 642.678C226.341 642.356 226.63 641.925 226.819 641.385C227.013 640.845 227.11 640.244 227.11 639.581C227.11 638.913 227.013 638.31 226.819 637.77C226.63 637.225 226.341 636.792 225.953 636.47C225.565 636.148 225.082 635.987 224.504 635.987C223.912 635.987 223.42 636.148 223.027 636.47C222.638 636.792 222.347 637.225 222.153 637.77C221.964 638.31 221.869 638.913 221.869 639.581C221.869 640.244 221.964 640.845 222.153 641.385C222.347 641.925 222.638 642.356 223.027 642.678C223.42 642.995 223.912 643.153 224.504 643.153ZM241.272 634.091L237.387 645H234.547L230.662 634.091H233.403L235.91 642.195H236.024L238.538 634.091H241.272ZM243.051 645V634.091H245.623V645H243.051ZM244.344 632.543C243.937 632.543 243.587 632.408 243.293 632.138C242.999 631.863 242.853 631.534 242.853 631.151C242.853 630.762 242.999 630.433 243.293 630.163C243.587 629.889 243.937 629.751 244.344 629.751C244.756 629.751 245.106 629.889 245.395 630.163C245.689 630.433 245.836 630.762 245.836 631.151C245.836 631.534 245.689 631.863 245.395 632.138C245.106 632.408 244.756 632.543 244.344 632.543ZM253.096 645.213C252.002 645.213 251.058 644.986 250.262 644.531C249.471 644.072 248.863 643.423 248.437 642.585C248.011 641.742 247.798 640.75 247.798 639.609C247.798 638.487 248.011 637.502 248.437 636.655C248.868 635.803 249.469 635.14 250.241 634.666C251.013 634.188 251.919 633.949 252.961 633.949C253.633 633.949 254.268 634.058 254.864 634.276C255.466 634.489 255.996 634.82 256.455 635.27C256.919 635.72 257.284 636.293 257.549 636.989C257.814 637.68 257.947 638.504 257.947 639.46V640.249H249.005V638.516H255.482C255.478 638.023 255.371 637.585 255.163 637.202C254.954 636.813 254.663 636.508 254.289 636.286C253.92 636.063 253.489 635.952 252.996 635.952C252.471 635.952 252.009 636.08 251.612 636.335C251.214 636.586 250.904 636.918 250.681 637.33C250.463 637.737 250.352 638.184 250.347 638.672V640.185C250.347 640.819 250.463 641.364 250.695 641.818C250.927 642.268 251.252 642.614 251.668 642.855C252.085 643.092 252.573 643.21 253.131 643.21C253.505 643.21 253.844 643.158 254.147 643.054C254.45 642.945 254.713 642.786 254.935 642.578C255.158 642.37 255.326 642.112 255.44 641.804L257.84 642.074C257.689 642.708 257.4 643.262 256.974 643.736C256.552 644.205 256.013 644.569 255.354 644.83C254.696 645.085 253.943 645.213 253.096 645.213ZM270.125 645H265.196V630.455H270.225C271.669 630.455 272.909 630.746 273.946 631.328C274.988 631.906 275.788 632.737 276.347 633.821C276.906 634.905 277.185 636.203 277.185 637.713C277.185 639.228 276.903 640.53 276.34 641.619C275.781 642.708 274.974 643.544 273.918 644.126C272.867 644.709 271.603 645 270.125 645ZM267.831 642.72H269.998C271.011 642.72 271.856 642.536 272.533 642.166C273.21 641.792 273.719 641.236 274.06 640.497C274.401 639.754 274.571 638.826 274.571 637.713C274.571 636.6 274.401 635.677 274.06 634.943C273.719 634.205 273.215 633.653 272.547 633.288C271.884 632.919 271.06 632.734 270.076 632.734H267.831V642.72ZM282.714 645.22C282.023 645.22 281.4 645.097 280.846 644.851C280.297 644.6 279.861 644.231 279.539 643.743C279.222 643.255 279.064 642.654 279.064 641.939C279.064 641.323 279.177 640.814 279.404 640.412C279.632 640.009 279.942 639.688 280.335 639.446C280.728 639.205 281.171 639.022 281.663 638.899C282.16 638.771 282.674 638.679 283.204 638.622C283.843 638.556 284.362 638.497 284.76 638.445C285.157 638.388 285.446 638.303 285.626 638.189C285.811 638.071 285.903 637.888 285.903 637.642V637.599C285.903 637.064 285.744 636.65 285.427 636.357C285.11 636.063 284.653 635.916 284.056 635.916C283.427 635.916 282.927 636.054 282.558 636.328C282.193 636.603 281.947 636.927 281.819 637.301L279.419 636.96C279.608 636.297 279.921 635.743 280.356 635.298C280.792 634.848 281.324 634.512 281.954 634.29C282.584 634.062 283.28 633.949 284.042 633.949C284.568 633.949 285.091 634.01 285.612 634.134C286.133 634.257 286.609 634.46 287.039 634.744C287.47 635.024 287.816 635.405 288.076 635.888C288.342 636.371 288.474 636.974 288.474 637.699V645H286.002V643.501H285.917C285.761 643.804 285.541 644.089 285.257 644.354C284.977 644.614 284.625 644.825 284.199 644.986C283.777 645.142 283.282 645.22 282.714 645.22ZM283.382 643.331C283.898 643.331 284.345 643.229 284.724 643.026C285.103 642.817 285.394 642.543 285.598 642.202C285.806 641.861 285.91 641.489 285.91 641.087V639.801C285.83 639.867 285.692 639.929 285.498 639.986C285.309 640.043 285.096 640.092 284.859 640.135C284.622 640.178 284.388 640.215 284.156 640.249C283.924 640.282 283.723 640.31 283.552 640.334C283.169 640.386 282.825 640.471 282.522 640.589C282.219 640.708 281.98 640.874 281.805 641.087C281.63 641.295 281.542 641.565 281.542 641.896C281.542 642.37 281.715 642.727 282.061 642.969C282.406 643.21 282.847 643.331 283.382 643.331ZM296.507 634.091V636.08H290.235V634.091H296.507ZM291.784 631.477H294.355V641.719C294.355 642.064 294.407 642.33 294.511 642.514C294.62 642.694 294.762 642.817 294.937 642.884C295.112 642.95 295.306 642.983 295.52 642.983C295.681 642.983 295.827 642.971 295.96 642.947C296.097 642.924 296.201 642.902 296.272 642.884L296.706 644.893C296.568 644.941 296.372 644.993 296.116 645.05C295.865 645.107 295.557 645.14 295.193 645.149C294.549 645.168 293.969 645.071 293.453 644.858C292.937 644.64 292.527 644.304 292.224 643.849C291.926 643.395 291.779 642.827 291.784 642.145V631.477ZM301.796 645.22C301.105 645.22 300.482 645.097 299.928 644.851C299.379 644.6 298.943 644.231 298.621 643.743C298.304 643.255 298.146 642.654 298.146 641.939C298.146 641.323 298.259 640.814 298.487 640.412C298.714 640.009 299.024 639.688 299.417 639.446C299.81 639.205 300.253 639.022 300.745 638.899C301.242 638.771 301.756 638.679 302.286 638.622C302.925 638.556 303.444 638.497 303.842 638.445C304.239 638.388 304.528 638.303 304.708 638.189C304.893 638.071 304.985 637.888 304.985 637.642V637.599C304.985 637.064 304.826 636.65 304.509 636.357C304.192 636.063 303.735 635.916 303.138 635.916C302.509 635.916 302.009 636.054 301.64 636.328C301.275 636.603 301.029 636.927 300.901 637.301L298.501 636.96C298.69 636.297 299.003 635.743 299.438 635.298C299.874 634.848 300.406 634.512 301.036 634.29C301.666 634.062 302.362 633.949 303.124 633.949C303.65 633.949 304.173 634.01 304.694 634.134C305.215 634.257 305.691 634.46 306.121 634.744C306.552 635.024 306.898 635.405 307.158 635.888C307.424 636.371 307.556 636.974 307.556 637.699V645H305.085V643.501H304.999C304.843 643.804 304.623 644.089 304.339 644.354C304.059 644.614 303.707 644.825 303.281 644.986C302.859 645.142 302.364 645.22 301.796 645.22ZM302.464 643.331C302.98 643.331 303.427 643.229 303.806 643.026C304.185 642.817 304.476 642.543 304.68 642.202C304.888 641.861 304.992 641.489 304.992 641.087V639.801C304.912 639.867 304.774 639.929 304.58 639.986C304.391 640.043 304.178 640.092 303.941 640.135C303.704 640.178 303.47 640.215 303.238 640.249C303.006 640.282 302.805 640.31 302.634 640.334C302.251 640.386 301.907 640.471 301.604 640.589C301.301 640.708 301.062 640.874 300.887 641.087C300.712 641.295 300.624 641.565 300.624 641.896C300.624 642.37 300.797 642.727 301.143 642.969C301.488 643.21 301.929 643.331 302.464 643.331ZM310.255 645V630.455H312.826V635.895H312.933C313.065 635.63 313.252 635.348 313.494 635.05C313.735 634.747 314.062 634.489 314.474 634.276C314.886 634.058 315.411 633.949 316.05 633.949C316.893 633.949 317.653 634.164 318.33 634.595C319.012 635.021 319.552 635.653 319.95 636.491C320.352 637.325 320.553 638.348 320.553 639.56C320.553 640.758 320.357 641.776 319.964 642.614C319.571 643.452 319.036 644.091 318.359 644.531C317.682 644.972 316.915 645.192 316.058 645.192C315.433 645.192 314.914 645.088 314.502 644.879C314.09 644.671 313.759 644.42 313.508 644.126C313.262 643.828 313.07 643.546 312.933 643.281H312.783V645H310.255ZM312.776 639.545C312.776 640.251 312.876 640.869 313.075 641.399C313.278 641.929 313.569 642.344 313.948 642.642C314.332 642.936 314.796 643.082 315.34 643.082C315.908 643.082 316.384 642.931 316.768 642.628C317.151 642.32 317.44 641.901 317.634 641.371C317.833 640.836 317.933 640.227 317.933 639.545C317.933 638.868 317.835 638.267 317.641 637.741C317.447 637.216 317.158 636.804 316.775 636.506C316.391 636.207 315.913 636.058 315.34 636.058C314.791 636.058 314.325 636.203 313.941 636.491C313.558 636.78 313.266 637.185 313.067 637.706C312.873 638.227 312.776 638.84 312.776 639.545ZM325.878 645.22C325.187 645.22 324.564 645.097 324.01 644.851C323.461 644.6 323.025 644.231 322.703 643.743C322.386 643.255 322.228 642.654 322.228 641.939C322.228 641.323 322.341 640.814 322.569 640.412C322.796 640.009 323.106 639.688 323.499 639.446C323.892 639.205 324.335 639.022 324.827 638.899C325.324 638.771 325.838 638.679 326.368 638.622C327.007 638.556 327.526 638.497 327.924 638.445C328.321 638.388 328.61 638.303 328.79 638.189C328.975 638.071 329.067 637.888 329.067 637.642V637.599C329.067 637.064 328.908 636.65 328.591 636.357C328.274 636.063 327.817 635.916 327.221 635.916C326.591 635.916 326.091 636.054 325.722 636.328C325.357 636.603 325.111 636.927 324.983 637.301L322.583 636.96C322.772 636.297 323.085 635.743 323.52 635.298C323.956 634.848 324.489 634.512 325.118 634.29C325.748 634.062 326.444 633.949 327.206 633.949C327.732 633.949 328.255 634.01 328.776 634.134C329.297 634.257 329.773 634.46 330.203 634.744C330.634 635.024 330.98 635.405 331.24 635.888C331.506 636.371 331.638 636.974 331.638 637.699V645H329.167V643.501H329.081C328.925 643.804 328.705 644.089 328.421 644.354C328.141 644.614 327.789 644.825 327.363 644.986C326.941 645.142 326.446 645.22 325.878 645.22ZM326.546 643.331C327.062 643.331 327.509 643.229 327.888 643.026C328.267 642.817 328.558 642.543 328.762 642.202C328.97 641.861 329.074 641.489 329.074 641.087V639.801C328.994 639.867 328.856 639.929 328.662 639.986C328.473 640.043 328.26 640.092 328.023 640.135C327.786 640.178 327.552 640.215 327.32 640.249C327.088 640.282 326.887 640.31 326.716 640.334C326.333 640.386 325.989 640.471 325.686 640.589C325.383 640.708 325.144 640.874 324.969 641.087C324.794 641.295 324.706 641.565 324.706 641.896C324.706 642.37 324.879 642.727 325.225 642.969C325.57 643.21 326.011 643.331 326.546 643.331ZM342.846 636.974L340.502 637.23C340.435 636.993 340.319 636.771 340.154 636.562C339.993 636.354 339.775 636.186 339.5 636.058C339.226 635.93 338.89 635.866 338.492 635.866C337.957 635.866 337.507 635.982 337.142 636.214C336.783 636.446 336.605 636.747 336.61 637.116C336.605 637.434 336.721 637.692 336.958 637.891C337.199 638.089 337.597 638.253 338.151 638.381L340.012 638.778C341.044 639.001 341.811 639.354 342.313 639.837C342.819 640.32 343.075 640.952 343.08 641.733C343.075 642.42 342.874 643.026 342.476 643.551C342.083 644.072 341.536 644.479 340.836 644.773C340.135 645.066 339.33 645.213 338.421 645.213C337.086 645.213 336.011 644.934 335.196 644.375C334.382 643.812 333.897 643.028 333.74 642.024L336.248 641.783C336.361 642.275 336.603 642.647 336.972 642.898C337.341 643.149 337.822 643.274 338.414 643.274C339.025 643.274 339.515 643.149 339.884 642.898C340.258 642.647 340.445 642.337 340.445 641.967C340.445 641.655 340.324 641.397 340.083 641.193C339.846 640.99 339.477 640.833 338.975 640.724L337.114 640.334C336.068 640.116 335.293 639.749 334.792 639.233C334.29 638.712 334.041 638.054 334.046 637.259C334.041 636.586 334.223 636.004 334.593 635.511C334.967 635.014 335.485 634.631 336.148 634.361C336.816 634.086 337.585 633.949 338.456 633.949C339.735 633.949 340.741 634.221 341.475 634.766C342.213 635.31 342.67 636.046 342.846 636.974ZM350.029 645.213C348.936 645.213 347.991 644.986 347.196 644.531C346.405 644.072 345.797 643.423 345.37 642.585C344.944 641.742 344.731 640.75 344.731 639.609C344.731 638.487 344.944 637.502 345.37 636.655C345.801 635.803 346.403 635.14 347.174 634.666C347.946 634.188 348.853 633.949 349.895 633.949C350.567 633.949 351.201 634.058 351.798 634.276C352.399 634.489 352.93 634.82 353.389 635.27C353.853 635.72 354.217 636.293 354.483 636.989C354.748 637.68 354.88 638.504 354.88 639.46V640.249H345.939V638.516H352.416C352.411 638.023 352.305 637.585 352.096 637.202C351.888 636.813 351.597 636.508 351.223 636.286C350.853 636.063 350.422 635.952 349.93 635.952C349.404 635.952 348.943 636.08 348.545 636.335C348.147 636.586 347.837 636.918 347.615 637.33C347.397 637.737 347.286 638.184 347.281 638.672V640.185C347.281 640.819 347.397 641.364 347.629 641.818C347.861 642.268 348.185 642.614 348.602 642.855C349.019 643.092 349.506 643.21 350.065 643.21C350.439 643.21 350.778 643.158 351.081 643.054C351.384 642.945 351.646 642.786 351.869 642.578C352.092 642.37 352.26 642.112 352.373 641.804L354.774 642.074C354.622 642.708 354.333 643.262 353.907 643.736C353.486 644.205 352.946 644.569 352.288 644.83C351.63 645.085 350.877 645.213 350.029 645.213Z" fill="white" fill-opacity="0.8"/>
<defs>
<filter id="filter0_d_0_1" x="0" y="0" width="520" height="532" filterUnits="userSpaceOnUse" color-interpolation-filters="sRGB">
<feFlood flood-opacity="0" result="BackgroundImageFix"/>
<feColorMatrix in="SourceAlpha" type="matrix" values="0 0 0 0 0 0 0 0 0 0 0 0 0 0 0 0 0 0 127 0" result="hardAlpha"/>
<feOffset dx="4" dy="16"/>
<feGaussianBlur stdDeviation="2"/>
<feComposite in2="hardAlpha" operator="out"/>
<feColorMatrix type="matrix" values="0 0 0 0 0 0 0 0 0 0 0 0 0 0 0 0 0 0 0.25 0"/>
<feBlend mode="normal" in2="BackgroundImageFix" result="effect1_dropShadow_0_1"/>
<feBlend mode="normal" in="SourceGraphic" in2="effect1_dropShadow_0_1" result="shape"/>
</filter>
<filter id="filter1_d_0_1" x="80.9886" y="560.946" width="349.379" height="53.6506" filterUnits="userSpaceOnUse" color-interpolation-filters="sRGB">
<feFlood flood-opacity="0" result="BackgroundImageFix"/>
<feColorMatrix in="SourceAlpha" type="matrix" values="0 0 0 0 0 0 0 0 0 0 0 0 0 0 0 0 0 0 127 0" result="hardAlpha"/>
<feOffset dy="6"/>
<feGaussianBlur stdDeviation="2"/>
<feComposite in2="hardAlpha" operator="out"/>
<feColorMatrix type="matrix" values="0 0 0 0 0 0 0 0 0 0 0 0 0 0 0 0 0 0 0.25 0"/>
<feBlend mode="normal" in2="BackgroundImageFix" result="effect1_dropShadow_0_1"/>
<feBlend mode="normal" in="SourceGraphic" in2="effect1_dropShadow_0_1" result="shape"/>
</filter>
<linearGradient id="paint0_linear_0_1" x1="90" y1="256.035" x2="421.105" y2="256.035" gradientUnits="userSpaceOnUse">
<stop stop-color="#90CEA1"/>
<stop offset="0.56" stop-color="#3CBEC9"/>
<stop offset="1" stop-color="#00B3E5"/>
</linearGradient>
</defs>
</svg>
