<svg width="520" height="526" viewBox="0 0 520 526" fill="none" xmlns="http://www.w3.org/2000/svg">
<g filter="url(#filter0_d_0_1)">
<rect x="4" width="512" height="512" rx="256" fill="#0D253F"/>
</g>
<g filter="url(#filter1_d_0_1)">
<path d="M277.914 247.844H394.351C402.504 247.844 410.324 244.602 416.091 238.831C421.858 233.059 425.1 225.231 425.105 217.067C425.105 208.9 421.864 201.067 416.097 195.292C410.329 189.517 402.507 186.272 394.351 186.272H277.914C269.758 186.272 261.935 189.517 256.168 195.292C250.4 201.067 247.16 208.9 247.16 217.067C247.165 225.231 250.407 233.059 256.174 238.831C261.941 244.602 269.761 247.844 277.914 247.844ZM124.754 326.268H258.595C266.748 326.268 274.568 323.026 280.335 317.255C286.102 311.483 289.344 303.655 289.349 295.491C289.349 287.324 286.109 279.491 280.341 273.716C274.574 267.941 266.751 264.696 258.595 264.696H124.754C116.597 264.696 108.775 267.941 103.008 273.716C97.2401 279.491 94 287.324 94 295.491C94.0046 303.655 97.2468 311.483 103.014 317.255C108.781 323.026 116.6 326.268 124.754 326.268ZM112.118 246.729H125.694V197.06H143.272V185H94.5395V197.025H112.118V246.729ZM161.025 246.729H174.601V199.378H174.775L190.439 246.694H200.881L217.068 199.378H217.242V246.694H230.817V185H210.193L195.921 225.258H195.747L181.562 185H161.025V246.729ZM359.298 282.019C357.482 278.228 354.784 274.929 351.431 272.399C347.952 269.852 343.999 268.027 339.805 267.032C335.211 265.882 330.494 265.297 325.759 265.289H305.396V326.983H327.587C332.044 327.004 336.478 326.328 340.727 324.978C344.739 323.756 348.487 321.794 351.779 319.192C354.981 316.59 357.577 313.319 359.385 309.607C361.34 305.483 362.311 300.961 362.222 296.397C362.364 291.443 361.363 286.523 359.298 282.019ZM346.366 304.553C345.348 306.879 343.769 308.915 341.771 310.479C339.695 312.007 337.324 313.087 334.81 313.65C331.956 314.309 329.036 314.63 326.107 314.609H319.059V278.011H327.065C329.812 277.997 332.547 278.367 335.193 279.109C337.626 279.766 339.916 280.871 341.946 282.368C343.806 283.834 345.316 285.698 346.366 287.823C347.562 290.273 348.158 292.973 348.107 295.7C348.183 298.743 347.589 301.766 346.366 304.553ZM424.043 304.327C423.428 302.642 422.494 301.091 421.293 299.761C420.098 298.437 418.67 297.345 417.081 296.537C415.348 295.661 413.485 295.072 411.564 294.794V294.62C414.549 293.761 417.221 292.054 419.257 289.705C421.263 287.256 422.303 284.156 422.181 280.991C422.311 278.153 421.616 275.338 420.179 272.887C418.868 270.89 417.071 269.258 414.958 268.147C412.684 266.971 410.221 266.204 407.683 265.881C405.019 265.5 402.332 265.308 399.642 265.306H376.668V327H401.904C404.666 327.002 407.419 326.709 410.119 326.129C412.748 325.602 415.267 324.629 417.568 323.253C419.747 321.952 421.593 320.162 422.964 318.025C424.431 315.565 425.157 312.732 425.052 309.869C425.055 307.98 424.731 306.105 424.095 304.327H424.043ZM390.243 276.878H399.468C400.548 276.882 401.626 276.988 402.687 277.192C403.717 277.377 404.713 277.712 405.646 278.185C406.506 278.655 407.236 279.332 407.77 280.155C408.357 281.105 408.648 282.209 408.605 283.326C408.63 284.419 408.373 285.5 407.857 286.463C407.387 287.309 406.718 288.028 405.907 288.555C405.064 289.09 404.133 289.473 403.157 289.688C402.148 289.926 401.114 290.043 400.077 290.036H390.243V276.878ZM410.641 311.733C410.118 312.643 409.391 313.418 408.518 313.999C407.633 314.595 406.64 315.01 405.594 315.219C404.555 315.453 403.492 315.57 402.426 315.567H390.243V301.625H400.512C401.677 301.636 402.839 301.724 403.993 301.887C405.218 302.055 406.416 302.377 407.561 302.845C408.628 303.293 409.567 304 410.293 304.902C411.051 305.902 411.438 307.133 411.39 308.387C411.446 309.55 411.187 310.706 410.641 311.733Z" fill="url(#paint0_linear_0_1)"/>
</g>
<defs>
<filter id="filter0_d_0_1" x="0" y="0" width="520" height="526" filterUnits="userSpaceOnUse" color-interpolation-filters="sRGB">
<feFlood flood-opacity="0" result="BackgroundImageFix"/>
<feColorMatrix in="SourceAlpha" type="matrix" values="0 0 0 0 0 0 0 0 0 0 0 0 0 0 0 0 0 0 127 0" result="hardAlpha"/>
<feOffset dy="10"/>
<feGaussianBlur stdDeviation="2"/>
<feComposite in2="hardAlpha" operator="out"/>
<feColorMatrix type="matrix" values="0 0 0 0 0 0 0 0 0 0 0 0 0 0 0 0 0 0 0.25 0"/>
<feBlend mode="normal" in2="BackgroundImageFix" result="effect1_dropShadow_0_1"/>
<feBlend mode="normal" in="SourceGraphic" in2="effect1_dropShadow_0_1" result="shape"/>
</filter>
<filter id="filter1_d_0_1" x="90" y="185" width="339.105" height="156" filterUnits="userSpaceOnUse" color-interpolation-filters="sRGB">
<feFlood flood-opacity="0" result="BackgroundImageFix"/>
<feColorMatrix in="SourceAlpha" type="matrix" values="0 0 0 0 0 0 0 0 0 0 0 0 0 0 0 0 0 0 127 0" result="hardAlpha"/>
<feOffset dy="10"/>
<feGaussianBlur stdDeviation="2"/>
<feComposite in2="hardAlpha" operator="out"/>
<feColorMatrix type="matrix" values="0 0 0 0 0 0 0 0 0 0 0 0 0 0 0 0 0 0 0.25 0"/>
<feBlend mode="normal" in2="BackgroundImageFix" result="effect1_dropShadow_0_1"/>
<feBlend mode="normal" in="SourceGraphic" in2="effect1_dropShadow_0_1" result="shape"/>
</filter>
<linearGradient id="paint0_linear_0_1" x1="94" y1="256.035" x2="425.105" y2="256.035" gradientUnits="userSpaceOnUse">
<stop stop-color="#90CEA1"/>
<stop offset="0.56" stop-color="#3CBEC9"/>
<stop offset="1" stop-color="#00B3E5"/>
</linearGradient>
</defs>
</svg>
