<svg width="520" height="639" viewBox="0 0 520 639" fill="none" xmlns="http://www.w3.org/2000/svg">
<g filter="url(#filter0_d_0_1)">
<rect width="512" height="512" rx="256" fill="#0D253F"/>
</g>
<path d="M273.914 247.844H390.351C398.504 247.844 406.324 244.602 412.091 238.831C417.858 233.059 421.1 225.231 421.105 217.067C421.105 208.9 417.864 201.067 412.097 195.292C406.329 189.517 398.507 186.272 390.351 186.272H273.914C265.758 186.272 257.935 189.517 252.168 195.292C246.4 201.067 243.16 208.9 243.16 217.067C243.165 225.231 246.407 233.059 252.174 238.831C257.941 244.602 265.761 247.844 273.914 247.844ZM120.754 326.268H254.595C262.748 326.268 270.568 323.026 276.335 317.255C282.102 311.483 285.344 303.655 285.349 295.491C285.349 287.324 282.109 279.491 276.341 273.716C270.574 267.941 262.751 264.696 254.595 264.696H120.754C112.597 264.696 104.775 267.941 99.0076 273.716C93.2401 279.491 90 287.324 90 295.491C90.0046 303.655 93.2468 311.483 99.0138 317.255C104.781 323.026 112.6 326.268 120.754 326.268ZM108.118 246.729H121.694V197.06H139.272V185H90.5395V197.025H108.118V246.729ZM157.025 246.729H170.601V199.378H170.775L186.439 246.694H196.881L213.068 199.378H213.242V246.694H226.817V185H206.193L191.921 225.258H191.747L177.562 185H157.025V246.729ZM355.298 282.019C353.482 278.228 350.784 274.929 347.431 272.399C343.952 269.852 339.999 268.027 335.805 267.032C331.211 265.882 326.494 265.297 321.759 265.289H301.396V326.983H323.587C328.044 327.004 332.478 326.328 336.727 324.978C340.739 323.756 344.487 321.794 347.779 319.192C350.981 316.59 353.577 313.319 355.385 309.607C357.34 305.483 358.311 300.961 358.222 296.397C358.364 291.443 357.363 286.523 355.298 282.019ZM342.366 304.553C341.348 306.879 339.769 308.915 337.771 310.479C335.695 312.007 333.324 313.087 330.81 313.65C327.956 314.309 325.036 314.63 322.107 314.609H315.059V278.011H323.065C325.812 277.997 328.547 278.367 331.193 279.109C333.626 279.766 335.916 280.871 337.946 282.368C339.806 283.834 341.316 285.698 342.366 287.823C343.562 290.273 344.158 292.973 344.107 295.7C344.183 298.743 343.589 301.766 342.366 304.553ZM420.043 304.327C419.428 302.642 418.494 301.091 417.293 299.761C416.098 298.437 414.67 297.345 413.081 296.537C411.348 295.661 409.485 295.072 407.564 294.794V294.62C410.549 293.761 413.221 292.054 415.257 289.705C417.263 287.256 418.303 284.156 418.181 280.991C418.311 278.153 417.616 275.338 416.179 272.887C414.868 270.89 413.071 269.258 410.958 268.147C408.684 266.971 406.221 266.204 403.683 265.881C401.019 265.5 398.332 265.308 395.642 265.306H372.668V327H397.904C400.666 327.002 403.419 326.709 406.119 326.129C408.748 325.602 411.267 324.629 413.568 323.253C415.747 321.952 417.593 320.162 418.964 318.025C420.431 315.565 421.157 312.732 421.052 309.869C421.055 307.98 420.731 306.105 420.095 304.327H420.043ZM386.243 276.878H395.468C396.548 276.882 397.626 276.988 398.687 277.192C399.717 277.377 400.713 277.712 401.646 278.185C402.506 278.655 403.236 279.332 403.77 280.155C404.357 281.105 404.648 282.209 404.605 283.326C404.63 284.419 404.373 285.5 403.857 286.463C403.387 287.309 402.718 288.028 401.907 288.555C401.064 289.09 400.133 289.473 399.157 289.688C398.148 289.926 397.114 290.043 396.077 290.036H386.243V276.878ZM406.641 311.733C406.118 312.643 405.391 313.418 404.518 313.999C403.633 314.595 402.64 315.01 401.594 315.219C400.555 315.453 399.492 315.57 398.426 315.567H386.243V301.625H396.512C397.677 301.636 398.839 301.724 399.993 301.887C401.218 302.055 402.416 302.377 403.561 302.845C404.628 303.293 405.567 304 406.293 304.902C407.051 305.902 407.438 307.133 407.39 308.387C407.446 309.55 407.187 310.706 406.641 311.733Z" fill="url(#paint0_linear_0_1)"/>
<g filter="url(#filter1_d_0_1)">
<path d="M96.8466 566.774V560.182H127.906V566.774H116.328V598H108.425V566.774H96.8466ZM133.021 560.182H142.882L153.297 585.591H153.74L164.155 560.182H174.016V598H166.26V573.385H165.946L156.159 597.815H150.878L141.091 573.293H140.777V598H133.021V560.182ZM194.01 598H180.603V560.182H194.12C197.924 560.182 201.199 560.939 203.944 562.453C206.69 563.955 208.801 566.116 210.278 568.935C211.768 571.754 212.512 575.127 212.512 579.054C212.512 582.993 211.768 586.379 210.278 589.21C208.801 592.042 206.677 594.214 203.907 595.729C201.15 597.243 197.85 598 194.01 598ZM188.599 591.149H193.677C196.041 591.149 198.029 590.731 199.642 589.893C201.267 589.044 202.485 587.733 203.298 585.96C204.123 584.175 204.535 581.873 204.535 579.054C204.535 576.259 204.123 573.976 203.298 572.203C202.485 570.43 201.273 569.125 199.66 568.288C198.047 567.451 196.059 567.033 193.696 567.033H188.599V591.149ZM218.435 598V560.182H233.577C236.36 560.182 238.68 560.594 240.539 561.419C242.398 562.244 243.795 563.389 244.731 564.854C245.666 566.306 246.134 567.981 246.134 569.876C246.134 571.354 245.839 572.652 245.248 573.773C244.657 574.881 243.844 575.792 242.81 576.506C241.789 577.207 240.619 577.706 239.302 578.001V578.371C240.742 578.432 242.09 578.839 243.346 579.589C244.614 580.34 245.642 581.393 246.43 582.747C247.218 584.089 247.612 585.689 247.612 587.548C247.612 589.555 247.113 591.346 246.116 592.922C245.131 594.485 243.672 595.723 241.739 596.634C239.807 597.545 237.424 598 234.593 598H218.435ZM226.431 591.463H232.95C235.178 591.463 236.803 591.038 237.825 590.189C238.846 589.327 239.357 588.182 239.357 586.754C239.357 585.708 239.105 584.785 238.6 583.984C238.095 583.184 237.375 582.556 236.44 582.101C235.516 581.645 234.415 581.418 233.134 581.418H226.431V591.463ZM226.431 576.007H232.359C233.454 576.007 234.427 575.816 235.276 575.435C236.138 575.041 236.815 574.487 237.308 573.773C237.812 573.059 238.065 572.203 238.065 571.206C238.065 569.839 237.578 568.738 236.606 567.901C235.646 567.063 234.279 566.645 232.506 566.645H226.431V576.007ZM264.849 560.182H274.71L285.125 585.591H285.568L295.983 560.182H305.844V598H298.088V573.385H297.774L287.987 597.815H282.706L272.919 573.293H272.605V598H264.849V560.182ZM325.099 598.554C322.231 598.554 319.75 597.945 317.657 596.726C315.577 595.495 313.97 593.784 312.838 591.592C311.705 589.389 311.139 586.834 311.139 583.929C311.139 580.999 311.705 578.438 312.838 576.247C313.97 574.044 315.577 572.332 317.657 571.114C319.75 569.883 322.231 569.267 325.099 569.267C327.967 569.267 330.442 569.883 332.522 571.114C334.615 572.332 336.228 574.044 337.36 576.247C338.493 578.438 339.059 580.999 339.059 583.929C339.059 586.834 338.493 589.389 337.36 591.592C336.228 593.784 334.615 595.495 332.522 596.726C330.442 597.945 327.967 598.554 325.099 598.554ZM325.136 592.46C326.441 592.46 327.53 592.091 328.404 591.352C329.279 590.601 329.937 589.58 330.38 588.287C330.836 586.994 331.064 585.523 331.064 583.874C331.064 582.224 330.836 580.753 330.38 579.46C329.937 578.168 329.279 577.146 328.404 576.395C327.53 575.644 326.441 575.268 325.136 575.268C323.819 575.268 322.711 575.644 321.812 576.395C320.926 577.146 320.255 578.168 319.799 579.46C319.356 580.753 319.135 582.224 319.135 583.874C319.135 585.523 319.356 586.994 319.799 588.287C320.255 589.58 320.926 590.601 321.812 591.352C322.711 592.091 323.819 592.46 325.136 592.46ZM369.703 569.636L359.787 598H350.924L341.007 569.636H349.317L355.208 589.93H355.503L361.375 569.636H369.703ZM373.729 598V569.636H381.596V598H373.729ZM377.681 565.98C376.511 565.98 375.508 565.592 374.671 564.817C373.846 564.029 373.434 563.087 373.434 561.991C373.434 560.908 373.846 559.979 374.671 559.203C375.508 558.415 376.511 558.021 377.681 558.021C378.85 558.021 379.847 558.415 380.672 559.203C381.509 559.979 381.928 560.908 381.928 561.991C381.928 563.087 381.509 564.029 380.672 564.817C379.847 565.592 378.85 565.98 377.681 565.98ZM400.823 598.554C397.906 598.554 395.394 597.963 393.289 596.781C391.196 595.587 389.584 593.901 388.451 591.722C387.318 589.53 386.752 586.939 386.752 583.947C386.752 581.03 387.318 578.469 388.451 576.266C389.584 574.062 391.178 572.345 393.234 571.114C395.302 569.883 397.727 569.267 400.509 569.267C402.38 569.267 404.122 569.569 405.735 570.172C407.36 570.763 408.776 571.655 409.982 572.849C411.201 574.044 412.149 575.545 412.826 577.355C413.503 579.152 413.842 581.258 413.842 583.67V585.831H389.891V580.956H406.437C406.437 579.823 406.191 578.82 405.698 577.946C405.206 577.072 404.522 576.389 403.648 575.896C402.787 575.392 401.783 575.139 400.638 575.139C399.444 575.139 398.386 575.416 397.462 575.97C396.551 576.512 395.837 577.244 395.32 578.168C394.803 579.079 394.539 580.094 394.526 581.214V585.849C394.526 587.253 394.785 588.465 395.302 589.487C395.831 590.509 396.576 591.297 397.536 591.851C398.496 592.405 399.635 592.682 400.952 592.682C401.826 592.682 402.627 592.559 403.353 592.312C404.079 592.066 404.701 591.697 405.218 591.205C405.735 590.712 406.129 590.109 406.4 589.395L413.675 589.875C413.306 591.623 412.549 593.15 411.404 594.455C410.272 595.747 408.807 596.757 407.009 597.483C405.224 598.197 403.162 598.554 400.823 598.554Z" fill="#01B4E4"/>
</g>
<path d="M128.034 621.962V619.091H143.121V621.962H137.276V638H133.879V621.962H128.034ZM149.224 629.69V638H145.881V619.091H149.15V626.228H149.316C149.648 625.428 150.162 624.797 150.858 624.335C151.56 623.867 152.452 623.634 153.536 623.634C154.52 623.634 155.379 623.84 156.112 624.252C156.844 624.665 157.41 625.268 157.81 626.062C158.217 626.856 158.42 627.825 158.42 628.97V638H155.077V629.487C155.077 628.533 154.831 627.791 154.339 627.262C153.853 626.727 153.169 626.459 152.289 626.459C151.698 626.459 151.169 626.588 150.701 626.847C150.239 627.099 149.876 627.465 149.612 627.945C149.353 628.425 149.224 629.007 149.224 629.69ZM168.105 638.277C166.683 638.277 165.455 637.982 164.421 637.391C163.393 636.794 162.602 635.95 162.048 634.861C161.494 633.765 161.217 632.476 161.217 630.992C161.217 629.533 161.494 628.253 162.048 627.151C162.608 626.043 163.39 625.182 164.393 624.566C165.397 623.944 166.576 623.634 167.93 623.634C168.804 623.634 169.629 623.775 170.404 624.058C171.186 624.335 171.875 624.766 172.472 625.351C173.076 625.936 173.549 626.68 173.894 627.585C174.239 628.484 174.411 629.555 174.411 630.798V631.823H162.787V629.57H171.207C171.201 628.93 171.063 628.361 170.792 627.862C170.521 627.357 170.143 626.96 169.656 626.671C169.176 626.382 168.616 626.237 167.976 626.237C167.293 626.237 166.692 626.403 166.175 626.736C165.658 627.062 165.255 627.493 164.966 628.028C164.683 628.558 164.538 629.139 164.532 629.773V631.74C164.532 632.565 164.683 633.273 164.984 633.864C165.286 634.448 165.708 634.898 166.249 635.212C166.791 635.519 167.425 635.673 168.151 635.673C168.638 635.673 169.078 635.606 169.472 635.47C169.866 635.329 170.207 635.122 170.496 634.852C170.786 634.581 171.004 634.245 171.152 633.845L174.273 634.196C174.076 635.021 173.7 635.741 173.146 636.357C172.598 636.966 171.897 637.44 171.041 637.778C170.186 638.111 169.207 638.277 168.105 638.277ZM183.836 619.091H188.028L193.641 632.793H193.863L199.476 619.091H203.668V638H200.381V625.009H200.206L194.98 637.945H192.524L187.298 624.982H187.123V638H183.836V619.091ZM213.437 638.277C212.052 638.277 210.851 637.972 209.836 637.363C208.82 636.754 208.032 635.901 207.472 634.805C206.918 633.71 206.641 632.429 206.641 630.964C206.641 629.5 206.918 628.216 207.472 627.114C208.032 626.013 208.82 625.157 209.836 624.548C210.851 623.938 212.052 623.634 213.437 623.634C214.822 623.634 216.022 623.938 217.037 624.548C218.053 625.157 218.838 626.013 219.392 627.114C219.952 628.216 220.232 629.5 220.232 630.964C220.232 632.429 219.952 633.71 219.392 634.805C218.838 635.901 218.053 636.754 217.037 637.363C216.022 637.972 214.822 638.277 213.437 638.277ZM213.455 635.599C214.206 635.599 214.834 635.393 215.339 634.981C215.843 634.562 216.219 634.002 216.465 633.3C216.717 632.599 216.844 631.817 216.844 630.955C216.844 630.087 216.717 629.303 216.465 628.601C216.219 627.893 215.843 627.33 215.339 626.911C214.834 626.493 214.206 626.283 213.455 626.283C212.686 626.283 212.046 626.493 211.535 626.911C211.03 627.33 210.651 627.893 210.399 628.601C210.153 629.303 210.03 630.087 210.03 630.955C210.03 631.817 210.153 632.599 210.399 633.3C210.651 634.002 211.03 634.562 211.535 634.981C212.046 635.393 212.686 635.599 213.455 635.599ZM235.254 623.818L230.204 638H226.51L221.46 623.818H225.024L228.283 634.353H228.431L231.699 623.818H235.254ZM237.567 638V623.818H240.909V638H237.567ZM239.247 621.805C238.718 621.805 238.262 621.63 237.881 621.279C237.499 620.922 237.308 620.494 237.308 619.996C237.308 619.491 237.499 619.063 237.881 618.712C238.262 618.355 238.718 618.177 239.247 618.177C239.783 618.177 240.238 618.355 240.614 618.712C240.995 619.063 241.186 619.491 241.186 619.996C241.186 620.494 240.995 620.922 240.614 621.279C240.238 621.63 239.783 621.805 239.247 621.805ZM250.625 638.277C249.203 638.277 247.975 637.982 246.941 637.391C245.913 636.794 245.122 635.95 244.568 634.861C244.014 633.765 243.737 632.476 243.737 630.992C243.737 629.533 244.014 628.253 244.568 627.151C245.128 626.043 245.91 625.182 246.913 624.566C247.916 623.944 249.095 623.634 250.449 623.634C251.323 623.634 252.148 623.775 252.924 624.058C253.705 624.335 254.395 624.766 254.992 625.351C255.595 625.936 256.069 626.68 256.414 627.585C256.758 628.484 256.931 629.555 256.931 630.798V631.823H245.306V629.57H253.727C253.721 628.93 253.582 628.361 253.311 627.862C253.041 627.357 252.662 626.96 252.176 626.671C251.696 626.382 251.136 626.237 250.495 626.237C249.812 626.237 249.212 626.403 248.695 626.736C248.178 627.062 247.775 627.493 247.485 628.028C247.202 628.558 247.058 629.139 247.051 629.773V631.74C247.051 632.565 247.202 633.273 247.504 633.864C247.806 634.448 248.227 634.898 248.769 635.212C249.31 635.519 249.944 635.673 250.671 635.673C251.157 635.673 251.597 635.606 251.991 635.47C252.385 635.329 252.727 635.122 253.016 634.852C253.305 634.581 253.524 634.245 253.672 633.845L256.792 634.196C256.595 635.021 256.22 635.741 255.666 636.357C255.118 636.966 254.416 637.44 253.561 637.778C252.705 638.111 251.726 638.277 250.625 638.277ZM272.763 638H266.355V619.091H272.892C274.77 619.091 276.382 619.469 277.73 620.227C279.084 620.978 280.125 622.058 280.851 623.467C281.577 624.877 281.941 626.563 281.941 628.527C281.941 630.497 281.574 632.189 280.842 633.605C280.115 635.021 279.066 636.107 277.693 636.864C276.327 637.621 274.683 638 272.763 638ZM269.781 635.036H272.597C273.914 635.036 275.013 634.796 275.893 634.316C276.773 633.83 277.435 633.107 277.878 632.146C278.321 631.18 278.543 629.973 278.543 628.527C278.543 627.08 278.321 625.88 277.878 624.926C277.435 623.966 276.779 623.249 275.911 622.775C275.05 622.295 273.979 622.055 272.698 622.055H269.781V635.036ZM289.128 638.286C288.23 638.286 287.42 638.126 286.7 637.806C285.986 637.48 285.42 637 285.001 636.366C284.589 635.732 284.383 634.95 284.383 634.021C284.383 633.22 284.53 632.559 284.826 632.036C285.121 631.512 285.524 631.094 286.035 630.78C286.546 630.466 287.122 630.229 287.762 630.069C288.408 629.903 289.076 629.783 289.765 629.709C290.596 629.623 291.27 629.546 291.787 629.478C292.305 629.404 292.68 629.293 292.914 629.146C293.154 628.992 293.274 628.755 293.274 628.435V628.379C293.274 627.684 293.068 627.145 292.655 626.763C292.243 626.382 291.649 626.191 290.873 626.191C290.055 626.191 289.405 626.37 288.925 626.727C288.451 627.084 288.131 627.505 287.965 627.991L284.844 627.548C285.09 626.687 285.497 625.966 286.063 625.388C286.629 624.803 287.322 624.366 288.14 624.077C288.959 623.781 289.864 623.634 290.855 623.634C291.538 623.634 292.218 623.714 292.895 623.874C293.573 624.034 294.191 624.298 294.751 624.668C295.311 625.031 295.761 625.526 296.099 626.154C296.444 626.782 296.616 627.567 296.616 628.509V638H293.403V636.052H293.292C293.089 636.446 292.803 636.815 292.434 637.16C292.071 637.498 291.612 637.772 291.058 637.982C290.51 638.185 289.867 638.286 289.128 638.286ZM289.996 635.83C290.667 635.83 291.249 635.698 291.741 635.433C292.234 635.162 292.612 634.805 292.877 634.362C293.148 633.919 293.283 633.436 293.283 632.913V631.241C293.179 631.328 293 631.408 292.748 631.482C292.501 631.555 292.224 631.62 291.917 631.675C291.609 631.731 291.304 631.78 291.003 631.823C290.701 631.866 290.439 631.903 290.218 631.934C289.719 632.002 289.273 632.112 288.879 632.266C288.485 632.42 288.174 632.636 287.947 632.913C287.719 633.183 287.605 633.534 287.605 633.965C287.605 634.581 287.83 635.045 288.279 635.359C288.728 635.673 289.301 635.83 289.996 635.83ZM307.059 623.818V626.403H298.906V623.818H307.059ZM300.919 620.42H304.261V633.734C304.261 634.184 304.329 634.528 304.464 634.768C304.606 635.002 304.791 635.162 305.018 635.249C305.246 635.335 305.498 635.378 305.775 635.378C305.985 635.378 306.175 635.362 306.348 635.332C306.526 635.301 306.662 635.273 306.754 635.249L307.317 637.862C307.139 637.923 306.883 637.991 306.551 638.065C306.225 638.138 305.825 638.182 305.351 638.194C304.514 638.219 303.76 638.092 303.089 637.815C302.418 637.532 301.885 637.095 301.491 636.504C301.104 635.913 300.913 635.175 300.919 634.288V620.42ZM313.935 638.286C313.036 638.286 312.227 638.126 311.507 637.806C310.793 637.48 310.226 637 309.808 636.366C309.395 635.732 309.189 634.95 309.189 634.021C309.189 633.22 309.337 632.559 309.632 632.036C309.928 631.512 310.331 631.094 310.842 630.78C311.353 630.466 311.928 630.229 312.569 630.069C313.215 629.903 313.883 629.783 314.572 629.709C315.403 629.623 316.077 629.546 316.594 629.478C317.111 629.404 317.487 629.293 317.721 629.146C317.961 628.992 318.081 628.755 318.081 628.435V628.379C318.081 627.684 317.874 627.145 317.462 626.763C317.05 626.382 316.456 626.191 315.68 626.191C314.861 626.191 314.212 626.37 313.732 626.727C313.258 627.084 312.938 627.505 312.772 627.991L309.651 627.548C309.897 626.687 310.303 625.966 310.87 625.388C311.436 624.803 312.128 624.366 312.947 624.077C313.766 623.781 314.671 623.634 315.662 623.634C316.345 623.634 317.025 623.714 317.702 623.874C318.379 624.034 318.998 624.298 319.558 624.668C320.118 625.031 320.567 625.526 320.906 626.154C321.251 626.782 321.423 627.567 321.423 628.509V638H318.21V636.052H318.099C317.896 636.446 317.61 636.815 317.24 637.16C316.877 637.498 316.419 637.772 315.865 637.982C315.317 638.185 314.674 638.286 313.935 638.286ZM314.803 635.83C315.474 635.83 316.056 635.698 316.548 635.433C317.04 635.162 317.419 634.805 317.684 634.362C317.954 633.919 318.09 633.436 318.09 632.913V631.241C317.985 631.328 317.807 631.408 317.554 631.482C317.308 631.555 317.031 631.62 316.723 631.675C316.416 631.731 316.111 631.78 315.809 631.823C315.508 631.866 315.246 631.903 315.025 631.934C314.526 632.002 314.08 632.112 313.686 632.266C313.292 632.42 312.981 632.636 312.753 632.913C312.525 633.183 312.412 633.534 312.412 633.965C312.412 634.581 312.636 635.045 313.086 635.359C313.535 635.673 314.107 635.83 314.803 635.83ZM324.931 638V619.091H328.274V626.163H328.412C328.585 625.819 328.828 625.452 329.142 625.065C329.456 624.671 329.88 624.335 330.416 624.058C330.951 623.775 331.635 623.634 332.466 623.634C333.561 623.634 334.549 623.914 335.429 624.474C336.316 625.028 337.017 625.849 337.534 626.939C338.058 628.022 338.319 629.352 338.319 630.928C338.319 632.485 338.064 633.808 337.553 634.898C337.042 635.987 336.346 636.818 335.466 637.391C334.586 637.963 333.589 638.249 332.475 638.249C331.662 638.249 330.988 638.114 330.453 637.843C329.917 637.572 329.486 637.246 329.16 636.864C328.84 636.477 328.591 636.11 328.412 635.766H328.218V638H324.931ZM328.209 630.909C328.209 631.826 328.338 632.629 328.597 633.319C328.862 634.008 329.24 634.547 329.733 634.935C330.231 635.316 330.834 635.507 331.542 635.507C332.281 635.507 332.9 635.31 333.398 634.916C333.897 634.516 334.272 633.971 334.525 633.282C334.783 632.586 334.912 631.795 334.912 630.909C334.912 630.029 334.786 629.247 334.534 628.564C334.281 627.881 333.906 627.345 333.407 626.957C332.909 626.57 332.287 626.376 331.542 626.376C330.828 626.376 330.222 626.563 329.723 626.939C329.225 627.314 328.846 627.841 328.588 628.518C328.335 629.195 328.209 629.992 328.209 630.909ZM345.242 638.286C344.343 638.286 343.534 638.126 342.813 637.806C342.099 637.48 341.533 637 341.115 636.366C340.702 635.732 340.496 634.95 340.496 634.021C340.496 633.22 340.644 632.559 340.939 632.036C341.235 631.512 341.638 631.094 342.149 630.78C342.66 630.466 343.235 630.229 343.875 630.069C344.521 629.903 345.189 629.783 345.879 629.709C346.71 629.623 347.384 629.546 347.901 629.478C348.418 629.404 348.793 629.293 349.027 629.146C349.267 628.992 349.387 628.755 349.387 628.435V628.379C349.387 627.684 349.181 627.145 348.769 626.763C348.356 626.382 347.762 626.191 346.987 626.191C346.168 626.191 345.519 626.37 345.039 626.727C344.565 627.084 344.244 627.505 344.078 627.991L340.958 627.548C341.204 626.687 341.61 625.966 342.176 625.388C342.743 624.803 343.435 624.366 344.254 624.077C345.072 623.781 345.977 623.634 346.968 623.634C347.651 623.634 348.332 623.714 349.009 623.874C349.686 624.034 350.304 624.298 350.865 624.668C351.425 625.031 351.874 625.526 352.213 626.154C352.557 626.782 352.73 627.567 352.73 628.509V638H349.517V636.052H349.406C349.203 636.446 348.916 636.815 348.547 637.16C348.184 637.498 347.725 637.772 347.171 637.982C346.624 638.185 345.98 638.286 345.242 638.286ZM346.11 635.83C346.78 635.83 347.362 635.698 347.855 635.433C348.347 635.162 348.726 634.805 348.99 634.362C349.261 633.919 349.396 633.436 349.396 632.913V631.241C349.292 631.328 349.113 631.408 348.861 631.482C348.615 631.555 348.338 631.62 348.03 631.675C347.722 631.731 347.418 631.78 347.116 631.823C346.814 631.866 346.553 631.903 346.331 631.934C345.833 632.002 345.386 632.112 344.992 632.266C344.598 632.42 344.288 632.636 344.06 632.913C343.832 633.183 343.718 633.534 343.718 633.965C343.718 634.581 343.943 635.045 344.392 635.359C344.842 635.673 345.414 635.83 346.11 635.83ZM367.299 627.567L364.252 627.899C364.166 627.591 364.015 627.302 363.8 627.031C363.591 626.76 363.307 626.542 362.95 626.376C362.593 626.21 362.156 626.126 361.639 626.126C360.944 626.126 360.359 626.277 359.885 626.579C359.417 626.88 359.186 627.271 359.193 627.751C359.186 628.164 359.337 628.499 359.645 628.758C359.959 629.016 360.476 629.229 361.196 629.395L363.615 629.912C364.957 630.201 365.954 630.66 366.607 631.288C367.265 631.915 367.598 632.737 367.604 633.753C367.598 634.645 367.336 635.433 366.819 636.116C366.308 636.794 365.597 637.323 364.686 637.705C363.775 638.086 362.729 638.277 361.547 638.277C359.811 638.277 358.414 637.914 357.355 637.188C356.297 636.455 355.666 635.436 355.463 634.131L358.722 633.817C358.869 634.458 359.183 634.941 359.664 635.267C360.144 635.593 360.768 635.756 361.538 635.756C362.332 635.756 362.969 635.593 363.449 635.267C363.935 634.941 364.178 634.538 364.178 634.058C364.178 633.651 364.021 633.316 363.708 633.051C363.4 632.786 362.92 632.583 362.267 632.442L359.848 631.934C358.488 631.651 357.481 631.174 356.829 630.503C356.177 629.826 355.853 628.97 355.86 627.936C355.853 627.062 356.09 626.305 356.57 625.665C357.057 625.018 357.731 624.52 358.593 624.169C359.46 623.812 360.461 623.634 361.593 623.634C363.255 623.634 364.563 623.987 365.517 624.695C366.477 625.403 367.071 626.36 367.299 627.567ZM376.638 638.277C375.216 638.277 373.988 637.982 372.954 637.391C371.926 636.794 371.135 635.95 370.581 634.861C370.028 633.765 369.751 632.476 369.751 630.992C369.751 629.533 370.028 628.253 370.581 627.151C371.142 626.043 371.923 625.182 372.927 624.566C373.93 623.944 375.109 623.634 376.463 623.634C377.337 623.634 378.162 623.775 378.937 624.058C379.719 624.335 380.408 624.766 381.006 625.351C381.609 625.936 382.083 626.68 382.427 627.585C382.772 628.484 382.944 629.555 382.944 630.798V631.823H371.32V629.57H379.741C379.734 628.93 379.596 628.361 379.325 627.862C379.054 627.357 378.676 626.96 378.189 626.671C377.709 626.382 377.149 626.237 376.509 626.237C375.826 626.237 375.226 626.403 374.709 626.736C374.192 627.062 373.788 627.493 373.499 628.028C373.216 628.558 373.071 629.139 373.065 629.773V631.74C373.065 632.565 373.216 633.273 373.518 633.864C373.819 634.448 374.241 634.898 374.782 635.212C375.324 635.519 375.958 635.673 376.684 635.673C377.171 635.673 377.611 635.606 378.005 635.47C378.399 635.329 378.74 635.122 379.03 634.852C379.319 634.581 379.537 634.245 379.685 633.845L382.806 634.196C382.609 635.021 382.233 635.741 381.68 636.357C381.132 636.966 380.43 637.44 379.574 637.778C378.719 638.111 377.74 638.277 376.638 638.277Z" fill="#90CEA1" fill-opacity="0.8"/>
<defs>
<filter id="filter0_d_0_1" x="0" y="0" width="520" height="532" filterUnits="userSpaceOnUse" color-interpolation-filters="sRGB">
<feFlood flood-opacity="0" result="BackgroundImageFix"/>
<feColorMatrix in="SourceAlpha" type="matrix" values="0 0 0 0 0 0 0 0 0 0 0 0 0 0 0 0 0 0 127 0" result="hardAlpha"/>
<feOffset dx="4" dy="16"/>
<feGaussianBlur stdDeviation="2"/>
<feComposite in2="hardAlpha" operator="out"/>
<feColorMatrix type="matrix" values="0 0 0 0 0 0 0 0 0 0 0 0 0 0 0 0 0 0 0.25 0"/>
<feBlend mode="normal" in2="BackgroundImageFix" result="effect1_dropShadow_0_1"/>
<feBlend mode="normal" in="SourceGraphic" in2="effect1_dropShadow_0_1" result="shape"/>
</filter>
<filter id="filter1_d_0_1" x="92.8466" y="558.021" width="324.995" height="50.5327" filterUnits="userSpaceOnUse" color-interpolation-filters="sRGB">
<feFlood flood-opacity="0" result="BackgroundImageFix"/>
<feColorMatrix in="SourceAlpha" type="matrix" values="0 0 0 0 0 0 0 0 0 0 0 0 0 0 0 0 0 0 127 0" result="hardAlpha"/>
<feOffset dy="6"/>
<feGaussianBlur stdDeviation="2"/>
<feComposite in2="hardAlpha" operator="out"/>
<feColorMatrix type="matrix" values="0 0 0 0 0 0 0 0 0 0 0 0 0 0 0 0 0 0 0.25 0"/>
<feBlend mode="normal" in2="BackgroundImageFix" result="effect1_dropShadow_0_1"/>
<feBlend mode="normal" in="SourceGraphic" in2="effect1_dropShadow_0_1" result="shape"/>
</filter>
<linearGradient id="paint0_linear_0_1" x1="90" y1="256.035" x2="421.105" y2="256.035" gradientUnits="userSpaceOnUse">
<stop stop-color="#90CEA1"/>
<stop offset="0.56" stop-color="#3CBEC9"/>
<stop offset="1" stop-color="#00B3E5"/>
</linearGradient>
</defs>
</svg>
