<svg width="512" height="512" viewBox="0 0 512 512" fill="none" xmlns="http://www.w3.org/2000/svg">
<rect width="512" height="512" rx="36" fill="#0D253F"/>
<path d="M273.914 247.844H390.351C398.504 247.844 406.324 244.602 412.091 238.831C417.858 233.059 421.1 225.231 421.105 217.067C421.105 208.9 417.864 201.067 412.097 195.292C406.329 189.517 398.507 186.272 390.351 186.272H273.914C265.758 186.272 257.935 189.517 252.168 195.292C246.4 201.067 243.16 208.9 243.16 217.067C243.165 225.231 246.407 233.059 252.174 238.831C257.941 244.602 265.761 247.844 273.914 247.844ZM120.754 326.268H254.595C262.748 326.268 270.568 323.026 276.335 317.255C282.102 311.483 285.344 303.655 285.349 295.491C285.349 287.324 282.109 279.491 276.341 273.716C270.574 267.941 262.751 264.696 254.595 264.696H120.754C112.597 264.696 104.775 267.941 99.0076 273.716C93.2401 279.491 90 287.324 90 295.491C90.0046 303.655 93.2468 311.483 99.0138 317.255C104.781 323.026 112.6 326.268 120.754 326.268ZM108.118 246.729H121.694V197.06H139.272V185H90.5395V197.025H108.118V246.729ZM157.025 246.729H170.601V199.378H170.775L186.439 246.694H196.881L213.068 199.378H213.242V246.694H226.817V185H206.193L191.921 225.258H191.747L177.562 185H157.025V246.729ZM355.298 282.019C353.482 278.228 350.784 274.929 347.431 272.399C343.952 269.852 339.999 268.027 335.805 267.032C331.211 265.882 326.494 265.297 321.759 265.289H301.396V326.983H323.587C328.044 327.004 332.478 326.328 336.727 324.978C340.739 323.756 344.487 321.794 347.779 319.192C350.981 316.59 353.577 313.319 355.385 309.607C357.34 305.483 358.311 300.961 358.222 296.397C358.364 291.443 357.363 286.523 355.298 282.019ZM342.366 304.553C341.348 306.879 339.769 308.915 337.771 310.479C335.695 312.007 333.324 313.087 330.81 313.65C327.956 314.309 325.036 314.63 322.107 314.609H315.059V278.011H323.065C325.812 277.997 328.547 278.367 331.193 279.109C333.626 279.766 335.916 280.871 337.946 282.368C339.806 283.834 341.316 285.698 342.366 287.823C343.562 290.273 344.158 292.973 344.107 295.7C344.183 298.743 343.589 301.766 342.366 304.553ZM420.043 304.327C419.428 302.642 418.494 301.091 417.293 299.761C416.098 298.437 414.67 297.345 413.081 296.537C411.348 295.661 409.485 295.072 407.564 294.794V294.62C410.549 293.761 413.221 292.054 415.257 289.705C417.263 287.256 418.303 284.156 418.181 280.991C418.311 278.153 417.616 275.338 416.179 272.887C414.868 270.89 413.071 269.258 410.958 268.147C408.684 266.971 406.221 266.204 403.683 265.881C401.019 265.5 398.332 265.308 395.642 265.306H372.668V327H397.904C400.666 327.002 403.419 326.709 406.119 326.129C408.748 325.602 411.267 324.629 413.568 323.253C415.747 321.952 417.593 320.162 418.964 318.025C420.431 315.565 421.157 312.732 421.052 309.869C421.055 307.98 420.731 306.105 420.095 304.327H420.043ZM386.243 276.878H395.468C396.548 276.882 397.626 276.988 398.687 277.192C399.717 277.377 400.713 277.712 401.646 278.185C402.506 278.655 403.236 279.332 403.77 280.155C404.357 281.105 404.648 282.209 404.605 283.326C404.63 284.419 404.373 285.5 403.857 286.463C403.387 287.309 402.718 288.028 401.907 288.555C401.064 289.09 400.133 289.473 399.157 289.688C398.148 289.926 397.114 290.043 396.077 290.036H386.243V276.878ZM406.641 311.733C406.118 312.643 405.391 313.418 404.518 313.999C403.633 314.595 402.64 315.01 401.594 315.219C400.555 315.453 399.492 315.57 398.426 315.567H386.243V301.625H396.512C397.677 301.636 398.839 301.724 399.993 301.887C401.218 302.055 402.416 302.377 403.561 302.845C404.628 303.293 405.567 304 406.293 304.902C407.051 305.902 407.438 307.133 407.39 308.387C407.446 309.55 407.187 310.706 406.641 311.733Z" fill="url(#paint0_linear_0_1)"/>
<defs>
<linearGradient id="paint0_linear_0_1" x1="90" y1="256.035" x2="421.105" y2="256.035" gradientUnits="userSpaceOnUse">
<stop stop-color="#90CEA1"/>
<stop offset="0.56" stop-color="#3CBEC9"/>
<stop offset="1" stop-color="#00B3E5"/>
</linearGradient>
</defs>
</svg>
