<svg width="308" height="405" viewBox="0 0 308 405" fill="none" xmlns="http://www.w3.org/2000/svg">
<g filter="url(#filter0_d_0_1)">
<rect width="300" height="300" rx="150" fill="#0D253F"/>
</g>
<path d="M161.868 144.486H237.123C242.393 144.486 247.447 142.294 251.174 138.392C254.902 134.491 256.997 129.198 257 123.679C257 118.157 254.906 112.862 251.178 108.958C247.451 105.053 242.395 102.86 237.123 102.86H161.868C156.596 102.86 151.54 105.053 147.813 108.958C144.085 112.862 141.991 118.157 141.991 123.679C141.994 129.198 144.089 134.491 147.817 138.392C151.544 142.294 156.598 144.486 161.868 144.486ZM62.8769 197.505H149.381C154.651 197.505 159.705 195.313 163.432 191.412C167.16 187.51 169.255 182.218 169.258 176.698C169.258 171.177 167.164 165.881 163.436 161.977C159.709 158.073 154.653 155.879 149.381 155.879H62.8769C57.6052 155.879 52.5494 158.073 48.8218 161.977C45.0942 165.881 43 171.177 43 176.698C43.003 182.218 45.0985 187.51 48.8258 191.412C52.5531 195.313 57.6072 197.505 62.8769 197.505ZM54.7102 143.732H63.4843V110.153H74.8458V102H43.3487V110.13H54.7102V143.732ZM86.3197 143.732H95.0939V111.72H95.2064L105.33 143.708H112.08L122.541 111.72H122.654V143.708H131.428V102H118.098L108.874 129.216H108.761L99.5935 102H86.3197V143.732ZM214.468 167.591C213.294 165.028 211.551 162.797 209.383 161.087C207.135 159.365 204.58 158.131 201.869 157.458C198.9 156.681 195.851 156.285 192.791 156.28H179.63V197.988H193.972C196.853 198.003 199.719 197.546 202.465 196.633C205.058 195.807 207.481 194.48 209.608 192.722C211.678 190.962 213.355 188.751 214.524 186.242C215.787 183.454 216.415 180.396 216.358 177.311C216.449 173.962 215.803 170.635 214.468 167.591ZM206.11 182.825C205.452 184.397 204.431 185.773 203.14 186.831C201.798 187.864 200.266 188.594 198.64 188.975C196.796 189.42 194.909 189.637 193.016 189.623H188.46V164.881H193.635C195.41 164.871 197.178 165.121 198.888 165.623C200.461 166.067 201.941 166.814 203.253 167.826C204.455 168.817 205.431 170.077 206.11 171.514C206.883 173.171 207.268 174.996 207.235 176.839C207.284 178.897 206.9 180.94 206.11 182.825ZM256.314 182.672C255.916 181.532 255.313 180.484 254.536 179.585C253.764 178.69 252.841 177.951 251.814 177.405C250.694 176.813 249.49 176.415 248.248 176.227V176.109C250.178 175.529 251.905 174.375 253.22 172.786C254.517 171.131 255.189 169.035 255.11 166.895C255.194 164.977 254.745 163.073 253.817 161.417C252.969 160.066 251.808 158.963 250.442 158.212C248.972 157.417 247.381 156.899 245.74 156.68C244.018 156.423 242.282 156.293 240.543 156.292H225.694V198H242.005C243.79 198.001 245.57 197.804 247.315 197.411C249.013 197.055 250.642 196.397 252.129 195.467C253.537 194.587 254.731 193.377 255.616 191.932C256.565 190.269 257.034 188.354 256.966 186.418C256.968 185.141 256.759 183.874 256.348 182.672H256.314ZM234.468 164.115H240.43C241.129 164.118 241.825 164.189 242.511 164.327C243.177 164.452 243.821 164.678 244.424 164.999C244.98 165.316 245.451 165.774 245.796 166.33C246.176 166.972 246.364 167.719 246.336 168.474C246.352 169.213 246.186 169.944 245.852 170.595C245.549 171.167 245.116 171.652 244.592 172.009C244.047 172.371 243.446 172.63 242.815 172.775C242.163 172.936 241.494 173.015 240.824 173.01H234.468V164.115ZM247.652 187.679C247.314 188.294 246.844 188.818 246.28 189.211C245.708 189.613 245.066 189.894 244.39 190.035C243.718 190.194 243.031 190.273 242.343 190.271H234.468V180.845H241.105C241.858 180.853 242.61 180.912 243.355 181.022C244.147 181.136 244.921 181.354 245.661 181.67C246.351 181.973 246.958 182.45 247.427 183.06C247.917 183.736 248.167 184.569 248.136 185.417C248.172 186.203 248.005 186.984 247.652 187.679Z" fill="url(#paint0_linear_0_1)"/>
<g filter="url(#filter1_d_0_1)">
<path d="M21.4915 343.779V338.455H46.5781V343.779H37.2266V369H30.843V343.779H21.4915ZM50.7095 338.455H58.674L67.0859 358.977H67.4439L75.8558 338.455H83.8203V369H77.5561V349.119H77.3026L69.3977 368.851H65.1321L57.2273 349.044H56.9737V369H50.7095V338.455ZM99.9693 369H89.1412V338.455H100.059C103.131 338.455 105.776 339.066 107.993 340.289C110.211 341.502 111.916 343.247 113.109 345.524C114.312 347.801 114.914 350.526 114.914 353.697C114.914 356.879 114.312 359.614 113.109 361.901C111.916 364.187 110.201 365.942 107.964 367.165C105.736 368.388 103.072 369 99.9693 369ZM95.5993 363.467H99.7008C101.61 363.467 103.216 363.129 104.518 362.452C105.831 361.766 106.815 360.707 107.471 359.276C108.138 357.834 108.471 355.974 108.471 353.697C108.471 351.44 108.138 349.596 107.471 348.164C106.815 346.732 105.836 345.678 104.533 345.002C103.231 344.326 101.625 343.988 99.7157 343.988H95.5993V363.467ZM119.698 369V338.455H131.928C134.175 338.455 136.049 338.788 137.551 339.454C139.052 340.12 140.181 341.045 140.936 342.228C141.692 343.401 142.07 344.754 142.07 346.285C142.07 347.478 141.831 348.527 141.354 349.432C140.877 350.327 140.221 351.062 139.385 351.639C138.56 352.206 137.615 352.609 136.551 352.847V353.146C137.715 353.195 138.804 353.523 139.818 354.13C140.842 354.737 141.672 355.587 142.309 356.68C142.945 357.764 143.263 359.057 143.263 360.558C143.263 362.179 142.86 363.626 142.055 364.898C141.26 366.161 140.081 367.161 138.52 367.896C136.959 368.632 135.035 369 132.748 369H119.698ZM126.156 363.72H131.421C133.221 363.72 134.533 363.377 135.358 362.691C136.184 361.995 136.596 361.07 136.596 359.917C136.596 359.072 136.392 358.326 135.985 357.68C135.577 357.033 134.995 356.526 134.24 356.158C133.494 355.79 132.604 355.607 131.57 355.607H126.156V363.72ZM126.156 351.237H130.944C131.828 351.237 132.614 351.082 133.3 350.774C133.996 350.456 134.543 350.009 134.941 349.432C135.348 348.855 135.552 348.164 135.552 347.359C135.552 346.255 135.159 345.365 134.374 344.689C133.598 344.013 132.495 343.675 131.063 343.675H126.156V351.237ZM157.186 338.455H165.151L173.562 358.977H173.92L182.332 338.455H190.297V369H184.033V349.119H183.779L175.874 368.851H171.609L163.704 349.044H163.45V369H157.186V338.455ZM205.849 369.447C203.532 369.447 201.529 368.955 199.839 367.971C198.158 366.977 196.861 365.594 195.946 363.825C195.031 362.045 194.574 359.982 194.574 357.635C194.574 355.268 195.031 353.2 195.946 351.43C196.861 349.651 198.158 348.268 199.839 347.284C201.529 346.29 203.532 345.793 205.849 345.793C208.166 345.793 210.165 346.29 211.845 347.284C213.535 348.268 214.838 349.651 215.753 351.43C216.667 353.2 217.125 355.268 217.125 357.635C217.125 359.982 216.667 362.045 215.753 363.825C214.838 365.594 213.535 366.977 211.845 367.971C210.165 368.955 208.166 369.447 205.849 369.447ZM205.879 364.526C206.933 364.526 207.813 364.227 208.519 363.631C209.225 363.024 209.757 362.199 210.115 361.155C210.483 360.111 210.667 358.923 210.667 357.59C210.667 356.258 210.483 355.07 210.115 354.026C209.757 352.982 209.225 352.156 208.519 351.55C207.813 350.943 206.933 350.64 205.879 350.64C204.815 350.64 203.92 350.943 203.194 351.55C202.479 352.156 201.937 352.982 201.569 354.026C201.211 355.07 201.032 356.258 201.032 357.59C201.032 358.923 201.211 360.111 201.569 361.155C201.937 362.199 202.479 363.024 203.194 363.631C203.92 364.227 204.815 364.526 205.879 364.526ZM241.876 346.091L233.867 369H226.708L218.698 346.091H225.41L230.168 362.482H230.406L235.149 346.091H241.876ZM245.127 369V346.091H251.481V369H245.127ZM248.319 343.138C247.374 343.138 246.564 342.825 245.888 342.198C245.222 341.562 244.889 340.801 244.889 339.916C244.889 339.041 245.222 338.29 245.888 337.664C246.564 337.028 247.374 336.71 248.319 336.71C249.264 336.71 250.069 337.028 250.735 337.664C251.411 338.29 251.749 339.041 251.749 339.916C251.749 340.801 251.411 341.562 250.735 342.198C250.069 342.825 249.264 343.138 248.319 343.138ZM267.011 369.447C264.654 369.447 262.626 368.97 260.926 368.016C259.235 367.051 257.933 365.689 257.018 363.929C256.103 362.159 255.646 360.066 255.646 357.65C255.646 355.293 256.103 353.225 257.018 351.445C257.933 349.665 259.221 348.278 260.881 347.284C262.551 346.29 264.51 345.793 266.757 345.793C268.269 345.793 269.676 346.036 270.978 346.523C272.291 347.001 273.434 347.722 274.409 348.686C275.393 349.651 276.159 350.864 276.706 352.325C277.252 353.777 277.526 355.477 277.526 357.426V359.171H258.181V355.234H271.545C271.545 354.319 271.346 353.509 270.949 352.803C270.551 352.097 269.999 351.545 269.293 351.147C268.597 350.739 267.787 350.536 266.862 350.536C265.897 350.536 265.042 350.759 264.297 351.207C263.561 351.644 262.984 352.236 262.566 352.982C262.149 353.717 261.935 354.538 261.925 355.442V359.186C261.925 360.32 262.134 361.299 262.551 362.124C262.979 362.95 263.581 363.586 264.356 364.033C265.132 364.481 266.051 364.705 267.115 364.705C267.821 364.705 268.468 364.605 269.054 364.406C269.641 364.207 270.143 363.909 270.561 363.511C270.978 363.114 271.297 362.626 271.515 362.05L277.392 362.438C277.093 363.849 276.482 365.082 275.557 366.136C274.642 367.18 273.459 367.996 272.007 368.582C270.566 369.159 268.9 369.447 267.011 369.447Z" fill="#01B4E4"/>
</g>
<path d="M51.7955 391.663V389.455H63.4006V391.663H58.9048V404H56.2912V391.663H51.7955ZM68.0952 397.608V404H65.5241V389.455H68.0384V394.945H68.1662C68.4219 394.329 68.8172 393.844 69.3523 393.489C69.892 393.129 70.5786 392.949 71.4119 392.949C72.1695 392.949 72.83 393.107 73.3935 393.425C73.9569 393.742 74.3925 394.206 74.7003 394.817C75.0128 395.428 75.169 396.173 75.169 397.054V404H72.598V397.452C72.598 396.718 72.4086 396.147 72.0298 395.74C71.6558 395.328 71.1302 395.122 70.4531 395.122C69.9986 395.122 69.5914 395.222 69.2315 395.42C68.8764 395.615 68.5971 395.896 68.3935 396.266C68.1946 396.635 68.0952 397.082 68.0952 397.608ZM82.6193 404.213C81.5256 404.213 80.581 403.986 79.7855 403.531C78.9948 403.072 78.3864 402.423 77.9602 401.585C77.5341 400.742 77.321 399.75 77.321 398.609C77.321 397.487 77.5341 396.502 77.9602 395.655C78.3911 394.803 78.9924 394.14 79.7642 393.666C80.536 393.188 81.4427 392.949 82.4844 392.949C83.1567 392.949 83.7912 393.058 84.3878 393.276C84.9891 393.489 85.5194 393.82 85.9787 394.27C86.4427 394.72 86.8073 395.293 87.0724 395.989C87.3376 396.68 87.4702 397.504 87.4702 398.46V399.249H78.5284V397.516H85.0057C85.0009 397.023 84.8944 396.585 84.6861 396.202C84.4777 395.813 84.1866 395.508 83.8125 395.286C83.4432 395.063 83.0123 394.952 82.5199 394.952C81.9943 394.952 81.5327 395.08 81.1349 395.335C80.7372 395.586 80.4271 395.918 80.2045 396.33C79.9867 396.737 79.8755 397.184 79.8707 397.672V399.185C79.8707 399.819 79.9867 400.364 80.2188 400.818C80.4508 401.268 80.7751 401.614 81.1918 401.855C81.6084 402.092 82.0961 402.21 82.6548 402.21C83.0289 402.21 83.3674 402.158 83.6705 402.054C83.9735 401.945 84.2363 401.786 84.4588 401.578C84.6813 401.37 84.8494 401.112 84.9631 400.804L87.3636 401.074C87.2121 401.708 86.9233 402.262 86.4972 402.736C86.0758 403.205 85.536 403.569 84.8778 403.83C84.2197 404.085 83.4669 404.213 82.6193 404.213ZM94.7198 389.455H97.9442L102.262 399.994H102.433L106.751 389.455H109.975V404H107.447V394.007H107.312L103.292 403.957H101.403L97.3832 393.986H97.2482V404H94.7198V389.455ZM117.49 404.213C116.424 404.213 115.501 403.979 114.72 403.51C113.939 403.041 113.333 402.385 112.902 401.543C112.475 400.7 112.262 399.715 112.262 398.588C112.262 397.461 112.475 396.474 112.902 395.626C113.333 394.779 113.939 394.121 114.72 393.652C115.501 393.183 116.424 392.949 117.49 392.949C118.555 392.949 119.478 393.183 120.26 393.652C121.041 394.121 121.645 394.779 122.071 395.626C122.502 396.474 122.717 397.461 122.717 398.588C122.717 399.715 122.502 400.7 122.071 401.543C121.645 402.385 121.041 403.041 120.26 403.51C119.478 403.979 118.555 404.213 117.49 404.213ZM117.504 402.153C118.082 402.153 118.565 401.995 118.953 401.678C119.341 401.356 119.63 400.925 119.819 400.385C120.013 399.845 120.11 399.244 120.11 398.581C120.11 397.913 120.013 397.31 119.819 396.77C119.63 396.225 119.341 395.792 118.953 395.47C118.565 395.148 118.082 394.987 117.504 394.987C116.912 394.987 116.42 395.148 116.027 395.47C115.638 395.792 115.347 396.225 115.153 396.77C114.964 397.31 114.869 397.913 114.869 398.581C114.869 399.244 114.964 399.845 115.153 400.385C115.347 400.925 115.638 401.356 116.027 401.678C116.42 401.995 116.912 402.153 117.504 402.153ZM134.272 393.091L130.387 404H127.547L123.662 393.091H126.403L128.91 401.195H129.024L131.538 393.091H134.272ZM136.051 404V393.091H138.623V404H136.051ZM137.344 391.543C136.937 391.543 136.587 391.408 136.293 391.138C135.999 390.863 135.853 390.534 135.853 390.151C135.853 389.762 135.999 389.433 136.293 389.163C136.587 388.889 136.937 388.751 137.344 388.751C137.756 388.751 138.106 388.889 138.395 389.163C138.689 389.433 138.836 389.762 138.836 390.151C138.836 390.534 138.689 390.863 138.395 391.138C138.106 391.408 137.756 391.543 137.344 391.543ZM146.096 404.213C145.002 404.213 144.058 403.986 143.262 403.531C142.471 403.072 141.863 402.423 141.437 401.585C141.011 400.742 140.798 399.75 140.798 398.609C140.798 397.487 141.011 396.502 141.437 395.655C141.868 394.803 142.469 394.14 143.241 393.666C144.013 393.188 144.919 392.949 145.961 392.949C146.633 392.949 147.268 393.058 147.864 393.276C148.466 393.489 148.996 393.82 149.455 394.27C149.919 394.72 150.284 395.293 150.549 395.989C150.814 396.68 150.947 397.504 150.947 398.46V399.249H142.005V397.516H148.482C148.478 397.023 148.371 396.585 148.163 396.202C147.954 395.813 147.663 395.508 147.289 395.286C146.92 395.063 146.489 394.952 145.996 394.952C145.471 394.952 145.009 395.08 144.612 395.335C144.214 395.586 143.904 395.918 143.681 396.33C143.463 396.737 143.352 397.184 143.347 397.672V399.185C143.347 399.819 143.463 400.364 143.695 400.818C143.927 401.268 144.252 401.614 144.668 401.855C145.085 402.092 145.573 402.21 146.131 402.21C146.505 402.21 146.844 402.158 147.147 402.054C147.45 401.945 147.713 401.786 147.935 401.578C148.158 401.37 148.326 401.112 148.44 400.804L150.84 401.074C150.689 401.708 150.4 402.262 149.974 402.736C149.552 403.205 149.013 403.569 148.354 403.83C147.696 404.085 146.943 404.213 146.096 404.213ZM163.125 404H158.196V389.455H163.225C164.669 389.455 165.909 389.746 166.946 390.328C167.988 390.906 168.788 391.737 169.347 392.821C169.906 393.905 170.185 395.203 170.185 396.713C170.185 398.228 169.903 399.53 169.34 400.619C168.781 401.708 167.974 402.544 166.918 403.126C165.867 403.709 164.603 404 163.125 404ZM160.831 401.72H162.998C164.011 401.72 164.856 401.536 165.533 401.166C166.21 400.792 166.719 400.236 167.06 399.497C167.401 398.754 167.571 397.826 167.571 396.713C167.571 395.6 167.401 394.677 167.06 393.943C166.719 393.205 166.215 392.653 165.547 392.288C164.884 391.919 164.06 391.734 163.076 391.734H160.831V401.72ZM175.714 404.22C175.023 404.22 174.4 404.097 173.846 403.851C173.297 403.6 172.861 403.231 172.539 402.743C172.222 402.255 172.064 401.654 172.064 400.939C172.064 400.323 172.177 399.814 172.404 399.412C172.632 399.009 172.942 398.688 173.335 398.446C173.728 398.205 174.171 398.022 174.663 397.899C175.16 397.771 175.674 397.679 176.204 397.622C176.843 397.556 177.362 397.497 177.76 397.445C178.157 397.388 178.446 397.303 178.626 397.189C178.811 397.071 178.903 396.888 178.903 396.642V396.599C178.903 396.064 178.744 395.65 178.427 395.357C178.11 395.063 177.653 394.916 177.056 394.916C176.427 394.916 175.927 395.054 175.558 395.328C175.193 395.603 174.947 395.927 174.819 396.301L172.419 395.96C172.608 395.297 172.921 394.743 173.356 394.298C173.792 393.848 174.324 393.512 174.954 393.29C175.584 393.062 176.28 392.949 177.042 392.949C177.568 392.949 178.091 393.01 178.612 393.134C179.133 393.257 179.609 393.46 180.039 393.744C180.47 394.024 180.816 394.405 181.076 394.888C181.342 395.371 181.474 395.974 181.474 396.699V404H179.002V402.501H178.917C178.761 402.804 178.541 403.089 178.257 403.354C177.977 403.614 177.625 403.825 177.199 403.986C176.777 404.142 176.282 404.22 175.714 404.22ZM176.382 402.331C176.898 402.331 177.345 402.229 177.724 402.026C178.103 401.817 178.394 401.543 178.598 401.202C178.806 400.861 178.91 400.489 178.91 400.087V398.801C178.83 398.867 178.692 398.929 178.498 398.986C178.309 399.043 178.096 399.092 177.859 399.135C177.622 399.178 177.388 399.215 177.156 399.249C176.924 399.282 176.723 399.31 176.552 399.334C176.169 399.386 175.825 399.471 175.522 399.589C175.219 399.708 174.98 399.874 174.805 400.087C174.63 400.295 174.542 400.565 174.542 400.896C174.542 401.37 174.715 401.727 175.061 401.969C175.406 402.21 175.847 402.331 176.382 402.331ZM189.507 393.091V395.08H183.235V393.091H189.507ZM184.784 390.477H187.355V400.719C187.355 401.064 187.407 401.33 187.511 401.514C187.62 401.694 187.762 401.817 187.937 401.884C188.112 401.95 188.306 401.983 188.52 401.983C188.681 401.983 188.827 401.971 188.96 401.947C189.097 401.924 189.201 401.902 189.272 401.884L189.706 403.893C189.568 403.941 189.372 403.993 189.116 404.05C188.865 404.107 188.557 404.14 188.193 404.149C187.549 404.168 186.969 404.071 186.453 403.858C185.937 403.64 185.527 403.304 185.224 402.849C184.926 402.395 184.779 401.827 184.784 401.145V390.477ZM194.796 404.22C194.105 404.22 193.482 404.097 192.928 403.851C192.379 403.6 191.943 403.231 191.621 402.743C191.304 402.255 191.146 401.654 191.146 400.939C191.146 400.323 191.259 399.814 191.487 399.412C191.714 399.009 192.024 398.688 192.417 398.446C192.81 398.205 193.253 398.022 193.745 397.899C194.242 397.771 194.756 397.679 195.286 397.622C195.925 397.556 196.444 397.497 196.842 397.445C197.239 397.388 197.528 397.303 197.708 397.189C197.893 397.071 197.985 396.888 197.985 396.642V396.599C197.985 396.064 197.826 395.65 197.509 395.357C197.192 395.063 196.735 394.916 196.138 394.916C195.509 394.916 195.009 395.054 194.64 395.328C194.275 395.603 194.029 395.927 193.901 396.301L191.501 395.96C191.69 395.297 192.003 394.743 192.438 394.298C192.874 393.848 193.406 393.512 194.036 393.29C194.666 393.062 195.362 392.949 196.124 392.949C196.65 392.949 197.173 393.01 197.694 393.134C198.215 393.257 198.691 393.46 199.121 393.744C199.552 394.024 199.898 394.405 200.158 394.888C200.424 395.371 200.556 395.974 200.556 396.699V404H198.085V402.501H197.999C197.843 402.804 197.623 403.089 197.339 403.354C197.059 403.614 196.707 403.825 196.281 403.986C195.859 404.142 195.364 404.22 194.796 404.22ZM195.464 402.331C195.98 402.331 196.427 402.229 196.806 402.026C197.185 401.817 197.476 401.543 197.68 401.202C197.888 400.861 197.992 400.489 197.992 400.087V398.801C197.912 398.867 197.774 398.929 197.58 398.986C197.391 399.043 197.178 399.092 196.941 399.135C196.704 399.178 196.47 399.215 196.238 399.249C196.006 399.282 195.805 399.31 195.634 399.334C195.251 399.386 194.907 399.471 194.604 399.589C194.301 399.708 194.062 399.874 193.887 400.087C193.712 400.295 193.624 400.565 193.624 400.896C193.624 401.37 193.797 401.727 194.143 401.969C194.488 402.21 194.929 402.331 195.464 402.331ZM203.255 404V389.455H205.826V394.895H205.933C206.065 394.63 206.252 394.348 206.494 394.05C206.735 393.747 207.062 393.489 207.474 393.276C207.886 393.058 208.411 392.949 209.05 392.949C209.893 392.949 210.653 393.164 211.33 393.595C212.012 394.021 212.552 394.653 212.95 395.491C213.352 396.325 213.553 397.348 213.553 398.56C213.553 399.758 213.357 400.776 212.964 401.614C212.571 402.452 212.036 403.091 211.359 403.531C210.682 403.972 209.915 404.192 209.058 404.192C208.433 404.192 207.914 404.088 207.502 403.879C207.09 403.671 206.759 403.42 206.508 403.126C206.262 402.828 206.07 402.546 205.933 402.281H205.783V404H203.255ZM205.776 398.545C205.776 399.251 205.876 399.869 206.075 400.399C206.278 400.929 206.569 401.344 206.948 401.642C207.332 401.936 207.796 402.082 208.34 402.082C208.908 402.082 209.384 401.931 209.768 401.628C210.151 401.32 210.44 400.901 210.634 400.371C210.833 399.836 210.933 399.227 210.933 398.545C210.933 397.868 210.835 397.267 210.641 396.741C210.447 396.216 210.158 395.804 209.775 395.506C209.391 395.207 208.913 395.058 208.34 395.058C207.791 395.058 207.325 395.203 206.941 395.491C206.558 395.78 206.266 396.185 206.067 396.706C205.873 397.227 205.776 397.84 205.776 398.545ZM218.878 404.22C218.187 404.22 217.564 404.097 217.01 403.851C216.461 403.6 216.025 403.231 215.703 402.743C215.386 402.255 215.228 401.654 215.228 400.939C215.228 400.323 215.341 399.814 215.569 399.412C215.796 399.009 216.106 398.688 216.499 398.446C216.892 398.205 217.335 398.022 217.827 397.899C218.324 397.771 218.838 397.679 219.368 397.622C220.007 397.556 220.526 397.497 220.924 397.445C221.321 397.388 221.61 397.303 221.79 397.189C221.975 397.071 222.067 396.888 222.067 396.642V396.599C222.067 396.064 221.908 395.65 221.591 395.357C221.274 395.063 220.817 394.916 220.221 394.916C219.591 394.916 219.091 395.054 218.722 395.328C218.357 395.603 218.111 395.927 217.983 396.301L215.583 395.96C215.772 395.297 216.085 394.743 216.52 394.298C216.956 393.848 217.489 393.512 218.118 393.29C218.748 393.062 219.444 392.949 220.206 392.949C220.732 392.949 221.255 393.01 221.776 393.134C222.297 393.257 222.773 393.46 223.203 393.744C223.634 394.024 223.98 394.405 224.24 394.888C224.506 395.371 224.638 395.974 224.638 396.699V404H222.167V402.501H222.081C221.925 402.804 221.705 403.089 221.421 403.354C221.141 403.614 220.789 403.825 220.363 403.986C219.941 404.142 219.446 404.22 218.878 404.22ZM219.546 402.331C220.062 402.331 220.509 402.229 220.888 402.026C221.267 401.817 221.558 401.543 221.762 401.202C221.97 400.861 222.074 400.489 222.074 400.087V398.801C221.994 398.867 221.856 398.929 221.662 398.986C221.473 399.043 221.26 399.092 221.023 399.135C220.786 399.178 220.552 399.215 220.32 399.249C220.088 399.282 219.887 399.31 219.716 399.334C219.333 399.386 218.989 399.471 218.686 399.589C218.383 399.708 218.144 399.874 217.969 400.087C217.794 400.295 217.706 400.565 217.706 400.896C217.706 401.37 217.879 401.727 218.225 401.969C218.57 402.21 219.011 402.331 219.546 402.331ZM235.846 395.974L233.502 396.23C233.435 395.993 233.319 395.771 233.154 395.562C232.993 395.354 232.775 395.186 232.5 395.058C232.226 394.93 231.89 394.866 231.492 394.866C230.957 394.866 230.507 394.982 230.142 395.214C229.783 395.446 229.605 395.747 229.61 396.116C229.605 396.434 229.721 396.692 229.958 396.891C230.199 397.089 230.597 397.253 231.151 397.381L233.012 397.778C234.044 398.001 234.811 398.354 235.313 398.837C235.819 399.32 236.075 399.952 236.08 400.733C236.075 401.42 235.874 402.026 235.476 402.551C235.083 403.072 234.536 403.479 233.836 403.773C233.135 404.066 232.33 404.213 231.421 404.213C230.086 404.213 229.011 403.934 228.196 403.375C227.382 402.812 226.897 402.028 226.74 401.024L229.248 400.783C229.361 401.275 229.603 401.647 229.972 401.898C230.341 402.149 230.822 402.274 231.414 402.274C232.025 402.274 232.515 402.149 232.884 401.898C233.258 401.647 233.445 401.337 233.445 400.967C233.445 400.655 233.324 400.397 233.083 400.193C232.846 399.99 232.477 399.833 231.975 399.724L230.114 399.334C229.068 399.116 228.293 398.749 227.792 398.233C227.29 397.712 227.041 397.054 227.046 396.259C227.041 395.586 227.223 395.004 227.593 394.511C227.967 394.014 228.485 393.631 229.148 393.361C229.816 393.086 230.585 392.949 231.456 392.949C232.735 392.949 233.741 393.221 234.475 393.766C235.213 394.31 235.67 395.046 235.846 395.974ZM243.029 404.213C241.936 404.213 240.991 403.986 240.196 403.531C239.405 403.072 238.797 402.423 238.37 401.585C237.944 400.742 237.731 399.75 237.731 398.609C237.731 397.487 237.944 396.502 238.37 395.655C238.801 394.803 239.403 394.14 240.174 393.666C240.946 393.188 241.853 392.949 242.895 392.949C243.567 392.949 244.201 393.058 244.798 393.276C245.399 393.489 245.93 393.82 246.389 394.27C246.853 394.72 247.217 395.293 247.483 395.989C247.748 396.68 247.88 397.504 247.88 398.46V399.249H238.939V397.516H245.416C245.411 397.023 245.305 396.585 245.096 396.202C244.888 395.813 244.597 395.508 244.223 395.286C243.853 395.063 243.422 394.952 242.93 394.952C242.404 394.952 241.943 395.08 241.545 395.335C241.147 395.586 240.837 395.918 240.615 396.33C240.397 396.737 240.286 397.184 240.281 397.672V399.185C240.281 399.819 240.397 400.364 240.629 400.818C240.861 401.268 241.185 401.614 241.602 401.855C242.019 402.092 242.506 402.21 243.065 402.21C243.439 402.21 243.778 402.158 244.081 402.054C244.384 401.945 244.646 401.786 244.869 401.578C245.092 401.37 245.26 401.112 245.373 400.804L247.774 401.074C247.622 401.708 247.333 402.262 246.907 402.736C246.486 403.205 245.946 403.569 245.288 403.83C244.63 404.085 243.877 404.213 243.029 404.213Z" fill="#90CEA1" fill-opacity="0.8"/>
<defs>
<filter id="filter0_d_0_1" x="0" y="0" width="308" height="320" filterUnits="userSpaceOnUse" color-interpolation-filters="sRGB">
<feFlood flood-opacity="0" result="BackgroundImageFix"/>
<feColorMatrix in="SourceAlpha" type="matrix" values="0 0 0 0 0 0 0 0 0 0 0 0 0 0 0 0 0 0 127 0" result="hardAlpha"/>
<feOffset dx="4" dy="16"/>
<feGaussianBlur stdDeviation="2"/>
<feComposite in2="hardAlpha" operator="out"/>
<feColorMatrix type="matrix" values="0 0 0 0 0 0 0 0 0 0 0 0 0 0 0 0 0 0 0.25 0"/>
<feBlend mode="normal" in2="BackgroundImageFix" result="effect1_dropShadow_0_1"/>
<feBlend mode="normal" in="SourceGraphic" in2="effect1_dropShadow_0_1" result="shape"/>
</filter>
<filter id="filter1_d_0_1" x="17.4915" y="336.71" width="264.034" height="42.7379" filterUnits="userSpaceOnUse" color-interpolation-filters="sRGB">
<feFlood flood-opacity="0" result="BackgroundImageFix"/>
<feColorMatrix in="SourceAlpha" type="matrix" values="0 0 0 0 0 0 0 0 0 0 0 0 0 0 0 0 0 0 127 0" result="hardAlpha"/>
<feOffset dy="6"/>
<feGaussianBlur stdDeviation="2"/>
<feComposite in2="hardAlpha" operator="out"/>
<feColorMatrix type="matrix" values="0 0 0 0 0 0 0 0 0 0 0 0 0 0 0 0 0 0 0.25 0"/>
<feBlend mode="normal" in2="BackgroundImageFix" result="effect1_dropShadow_0_1"/>
<feBlend mode="normal" in="SourceGraphic" in2="effect1_dropShadow_0_1" result="shape"/>
</filter>
<linearGradient id="paint0_linear_0_1" x1="43" y1="150.024" x2="257" y2="150.024" gradientUnits="userSpaceOnUse">
<stop stop-color="#90CEA1"/>
<stop offset="0.56" stop-color="#3CBEC9"/>
<stop offset="1" stop-color="#00B3E5"/>
</linearGradient>
</defs>
</svg>
